#N canvas 1000 70 762 624 10;
#X obj 78 116 dac~;
#X obj 121 -86 r unit0;
#X obj 23 -27 osc~ 16.831152;
#X obj 78 63 *~;
#X obj 100 100 sig~;
#X obj 200 200 lop~ 3;
#X obj 300 300 *~ 0.004166667;
#X obj 121 -86 r unit1;
#X obj 23 -27 osc~ 17.324345;
#X obj 78 63 *~;
#X obj 100 100 sig~;
#X obj 200 200 lop~ 3;
#X obj 300 300 *~ 0.004166667;
#X obj 121 -86 r unit2;
#X obj 23 -27 osc~ 17.83199;
#X obj 78 63 *~;
#X obj 100 100 sig~;
#X obj 200 200 lop~ 3;
#X obj 300 300 *~ 0.004166667;
#X obj 121 -86 r unit3;
#X obj 23 -27 osc~ 18.35451;
#X obj 78 63 *~;
#X obj 100 100 sig~;
#X obj 200 200 lop~ 3;
#X obj 300 300 *~ 0.004166667;
#X obj 121 -86 r unit4;
#X obj 23 -27 osc~ 18.89234;
#X obj 78 63 *~;
#X obj 100 100 sig~;
#X obj 200 200 lop~ 3;
#X obj 300 300 *~ 0.004166667;
#X obj 121 -86 r unit5;
#X obj 23 -27 osc~ 19.44593;
#X obj 78 63 *~;
#X obj 100 100 sig~;
#X obj 200 200 lop~ 3;
#X obj 300 300 *~ 0.004166667;
#X obj 121 -86 r unit6;
#X obj 23 -27 osc~ 20.015741;
#X obj 78 63 *~;
#X obj 100 100 sig~;
#X obj 200 200 lop~ 3;
#X obj 300 300 *~ 0.004166667;
#X obj 121 -86 r unit7;
#X obj 23 -27 osc~ 20.60225;
#X obj 78 63 *~;
#X obj 100 100 sig~;
#X obj 200 200 lop~ 3;
#X obj 300 300 *~ 0.004166667;
#X obj 121 -86 r unit8;
#X obj 23 -27 osc~ 21.205944;
#X obj 78 63 *~;
#X obj 100 100 sig~;
#X obj 200 200 lop~ 3;
#X obj 300 300 *~ 0.004166667;
#X obj 121 -86 r unit9;
#X obj 23 -27 osc~ 21.827328;
#X obj 78 63 *~;
#X obj 100 100 sig~;
#X obj 200 200 lop~ 3;
#X obj 300 300 *~ 0.004166667;
#X obj 121 -86 r unit10;
#X obj 23 -27 osc~ 22.46692;
#X obj 78 63 *~;
#X obj 100 100 sig~;
#X obj 200 200 lop~ 3;
#X obj 300 300 *~ 0.004166667;
#X obj 121 -86 r unit11;
#X obj 23 -27 osc~ 23.125254;
#X obj 78 63 *~;
#X obj 100 100 sig~;
#X obj 200 200 lop~ 3;
#X obj 300 300 *~ 0.004166667;
#X obj 121 -86 r unit12;
#X obj 23 -27 osc~ 23.802877;
#X obj 78 63 *~;
#X obj 100 100 sig~;
#X obj 200 200 lop~ 3;
#X obj 300 300 *~ 0.004166667;
#X obj 121 -86 r unit13;
#X obj 23 -27 osc~ 24.500359;
#X obj 78 63 *~;
#X obj 100 100 sig~;
#X obj 200 200 lop~ 3;
#X obj 300 300 *~ 0.004166667;
#X obj 121 -86 r unit14;
#X obj 23 -27 osc~ 25.218277;
#X obj 78 63 *~;
#X obj 100 100 sig~;
#X obj 200 200 lop~ 3;
#X obj 300 300 *~ 0.004166667;
#X obj 121 -86 r unit15;
#X obj 23 -27 osc~ 25.957232;
#X obj 78 63 *~;
#X obj 100 100 sig~;
#X obj 200 200 lop~ 3;
#X obj 300 300 *~ 0.004166667;
#X obj 121 -86 r unit16;
#X obj 23 -27 osc~ 26.71784;
#X obj 78 63 *~;
#X obj 100 100 sig~;
#X obj 200 200 lop~ 3;
#X obj 300 300 *~ 0.004166667;
#X obj 121 -86 r unit17;
#X obj 23 -27 osc~ 27.500736;
#X obj 78 63 *~;
#X obj 100 100 sig~;
#X obj 200 200 lop~ 3;
#X obj 300 300 *~ 0.004166667;
#X obj 121 -86 r unit18;
#X obj 23 -27 osc~ 28.306572;
#X obj 78 63 *~;
#X obj 100 100 sig~;
#X obj 200 200 lop~ 3;
#X obj 300 300 *~ 0.004166667;
#X obj 121 -86 r unit19;
#X obj 23 -27 osc~ 29.13602;
#X obj 78 63 *~;
#X obj 100 100 sig~;
#X obj 200 200 lop~ 3;
#X obj 300 300 *~ 0.004166667;
#X obj 121 -86 r unit20;
#X obj 23 -27 osc~ 29.989775;
#X obj 78 63 *~;
#X obj 100 100 sig~;
#X obj 200 200 lop~ 3;
#X obj 300 300 *~ 0.004166667;
#X obj 121 -86 r unit21;
#X obj 23 -27 osc~ 30.868546;
#X obj 78 63 *~;
#X obj 100 100 sig~;
#X obj 200 200 lop~ 3;
#X obj 300 300 *~ 0.004166667;
#X obj 121 -86 r unit22;
#X obj 23 -27 osc~ 31.773067;
#X obj 78 63 *~;
#X obj 100 100 sig~;
#X obj 200 200 lop~ 3;
#X obj 300 300 *~ 0.004166667;
#X obj 121 -86 r unit23;
#X obj 23 -27 osc~ 32.704094;
#X obj 78 63 *~;
#X obj 100 100 sig~;
#X obj 200 200 lop~ 3;
#X obj 300 300 *~ 0.004166667;
#X obj 121 -86 r unit24;
#X obj 23 -27 osc~ 33.6624;
#X obj 78 63 *~;
#X obj 100 100 sig~;
#X obj 200 200 lop~ 3;
#X obj 300 300 *~ 0.004166667;
#X obj 121 -86 r unit25;
#X obj 23 -27 osc~ 34.64879;
#X obj 78 63 *~;
#X obj 100 100 sig~;
#X obj 200 200 lop~ 3;
#X obj 300 300 *~ 0.004166667;
#X obj 121 -86 r unit26;
#X obj 23 -27 osc~ 35.66408;
#X obj 78 63 *~;
#X obj 100 100 sig~;
#X obj 200 200 lop~ 3;
#X obj 300 300 *~ 0.004166667;
#X obj 121 -86 r unit27;
#X obj 23 -27 osc~ 36.70912;
#X obj 78 63 *~;
#X obj 100 100 sig~;
#X obj 200 200 lop~ 3;
#X obj 300 300 *~ 0.004166667;
#X obj 121 -86 r unit28;
#X obj 23 -27 osc~ 37.784786;
#X obj 78 63 *~;
#X obj 100 100 sig~;
#X obj 200 200 lop~ 3;
#X obj 300 300 *~ 0.004166667;
#X obj 121 -86 r unit29;
#X obj 23 -27 osc~ 38.891968;
#X obj 78 63 *~;
#X obj 100 100 sig~;
#X obj 200 200 lop~ 3;
#X obj 300 300 *~ 0.004166667;
#X obj 121 -86 r unit30;
#X obj 23 -27 osc~ 40.031593;
#X obj 78 63 *~;
#X obj 100 100 sig~;
#X obj 200 200 lop~ 3;
#X obj 300 300 *~ 0.004166667;
#X obj 121 -86 r unit31;
#X obj 23 -27 osc~ 41.204613;
#X obj 78 63 *~;
#X obj 100 100 sig~;
#X obj 200 200 lop~ 3;
#X obj 300 300 *~ 0.004166667;
#X obj 121 -86 r unit32;
#X obj 23 -27 osc~ 42.412006;
#X obj 78 63 *~;
#X obj 100 100 sig~;
#X obj 200 200 lop~ 3;
#X obj 300 300 *~ 0.004166667;
#X obj 121 -86 r unit33;
#X obj 23 -27 osc~ 43.654778;
#X obj 78 63 *~;
#X obj 100 100 sig~;
#X obj 200 200 lop~ 3;
#X obj 300 300 *~ 0.004166667;
#X obj 121 -86 r unit34;
#X obj 23 -27 osc~ 44.933964;
#X obj 78 63 *~;
#X obj 100 100 sig~;
#X obj 200 200 lop~ 3;
#X obj 300 300 *~ 0.004166667;
#X obj 121 -86 r unit35;
#X obj 23 -27 osc~ 46.250633;
#X obj 78 63 *~;
#X obj 100 100 sig~;
#X obj 200 200 lop~ 3;
#X obj 300 300 *~ 0.004166667;
#X obj 121 -86 r unit36;
#X obj 23 -27 osc~ 47.605885;
#X obj 78 63 *~;
#X obj 100 100 sig~;
#X obj 200 200 lop~ 3;
#X obj 300 300 *~ 0.004166667;
#X obj 121 -86 r unit37;
#X obj 23 -27 osc~ 49.00085;
#X obj 78 63 *~;
#X obj 100 100 sig~;
#X obj 200 200 lop~ 3;
#X obj 300 300 *~ 0.004166667;
#X obj 121 -86 r unit38;
#X obj 23 -27 osc~ 50.43669;
#X obj 78 63 *~;
#X obj 100 100 sig~;
#X obj 200 200 lop~ 3;
#X obj 300 300 *~ 0.004166667;
#X obj 121 -86 r unit39;
#X obj 23 -27 osc~ 51.914604;
#X obj 78 63 *~;
#X obj 100 100 sig~;
#X obj 200 200 lop~ 3;
#X obj 300 300 *~ 0.004166667;
#X obj 121 -86 r unit40;
#X obj 23 -27 osc~ 53.435825;
#X obj 78 63 *~;
#X obj 100 100 sig~;
#X obj 200 200 lop~ 3;
#X obj 300 300 *~ 0.004166667;
#X obj 121 -86 r unit41;
#X obj 23 -27 osc~ 55.00162;
#X obj 78 63 *~;
#X obj 100 100 sig~;
#X obj 200 200 lop~ 3;
#X obj 300 300 *~ 0.004166667;
#X obj 121 -86 r unit42;
#X obj 23 -27 osc~ 56.6133;
#X obj 78 63 *~;
#X obj 100 100 sig~;
#X obj 200 200 lop~ 3;
#X obj 300 300 *~ 0.004166667;
#X obj 121 -86 r unit43;
#X obj 23 -27 osc~ 58.272205;
#X obj 78 63 *~;
#X obj 100 100 sig~;
#X obj 200 200 lop~ 3;
#X obj 300 300 *~ 0.004166667;
#X obj 121 -86 r unit44;
#X obj 23 -27 osc~ 59.979717;
#X obj 78 63 *~;
#X obj 100 100 sig~;
#X obj 200 200 lop~ 3;
#X obj 300 300 *~ 0.004166667;
#X obj 121 -86 r unit45;
#X obj 23 -27 osc~ 61.737263;
#X obj 78 63 *~;
#X obj 100 100 sig~;
#X obj 200 200 lop~ 3;
#X obj 300 300 *~ 0.004166667;
#X obj 121 -86 r unit46;
#X obj 23 -27 osc~ 63.54631;
#X obj 78 63 *~;
#X obj 100 100 sig~;
#X obj 200 200 lop~ 3;
#X obj 300 300 *~ 0.004166667;
#X obj 121 -86 r unit47;
#X obj 23 -27 osc~ 65.40837;
#X obj 78 63 *~;
#X obj 100 100 sig~;
#X obj 200 200 lop~ 3;
#X obj 300 300 *~ 0.004166667;
#X obj 121 -86 r unit48;
#X obj 23 -27 osc~ 67.32499;
#X obj 78 63 *~;
#X obj 100 100 sig~;
#X obj 200 200 lop~ 3;
#X obj 300 300 *~ 0.004166667;
#X obj 121 -86 r unit49;
#X obj 23 -27 osc~ 69.29777;
#X obj 78 63 *~;
#X obj 100 100 sig~;
#X obj 200 200 lop~ 3;
#X obj 300 300 *~ 0.004166667;
#X obj 121 -86 r unit50;
#X obj 23 -27 osc~ 71.328354;
#X obj 78 63 *~;
#X obj 100 100 sig~;
#X obj 200 200 lop~ 3;
#X obj 300 300 *~ 0.004166667;
#X obj 121 -86 r unit51;
#X obj 23 -27 osc~ 73.41844;
#X obj 78 63 *~;
#X obj 100 100 sig~;
#X obj 200 200 lop~ 3;
#X obj 300 300 *~ 0.004166667;
#X obj 121 -86 r unit52;
#X obj 23 -27 osc~ 75.56978;
#X obj 78 63 *~;
#X obj 100 100 sig~;
#X obj 200 200 lop~ 3;
#X obj 300 300 *~ 0.004166667;
#X obj 121 -86 r unit53;
#X obj 23 -27 osc~ 77.78415;
#X obj 78 63 *~;
#X obj 100 100 sig~;
#X obj 200 200 lop~ 3;
#X obj 300 300 *~ 0.004166667;
#X obj 121 -86 r unit54;
#X obj 23 -27 osc~ 80.06341;
#X obj 78 63 *~;
#X obj 100 100 sig~;
#X obj 200 200 lop~ 3;
#X obj 300 300 *~ 0.004166667;
#X obj 121 -86 r unit55;
#X obj 23 -27 osc~ 82.409454;
#X obj 78 63 *~;
#X obj 100 100 sig~;
#X obj 200 200 lop~ 3;
#X obj 300 300 *~ 0.004166667;
#X obj 121 -86 r unit56;
#X obj 23 -27 osc~ 84.82425;
#X obj 78 63 *~;
#X obj 100 100 sig~;
#X obj 200 200 lop~ 3;
#X obj 300 300 *~ 0.004166667;
#X obj 121 -86 r unit57;
#X obj 23 -27 osc~ 87.3098;
#X obj 78 63 *~;
#X obj 100 100 sig~;
#X obj 200 200 lop~ 3;
#X obj 300 300 *~ 0.004166667;
#X obj 121 -86 r unit58;
#X obj 23 -27 osc~ 89.86818;
#X obj 78 63 *~;
#X obj 100 100 sig~;
#X obj 200 200 lop~ 3;
#X obj 300 300 *~ 0.004166667;
#X obj 121 -86 r unit59;
#X obj 23 -27 osc~ 92.501526;
#X obj 78 63 *~;
#X obj 100 100 sig~;
#X obj 200 200 lop~ 3;
#X obj 300 300 *~ 0.004166667;
#X obj 121 -86 r unit60;
#X obj 23 -27 osc~ 95.212036;
#X obj 78 63 *~;
#X obj 100 100 sig~;
#X obj 200 200 lop~ 3;
#X obj 300 300 *~ 0.004166667;
#X obj 121 -86 r unit61;
#X obj 23 -27 osc~ 98.001976;
#X obj 78 63 *~;
#X obj 100 100 sig~;
#X obj 200 200 lop~ 3;
#X obj 300 300 *~ 0.004166667;
#X obj 121 -86 r unit62;
#X obj 23 -27 osc~ 100.873665;
#X obj 78 63 *~;
#X obj 100 100 sig~;
#X obj 200 200 lop~ 3;
#X obj 300 300 *~ 0.004166667;
#X obj 121 -86 r unit63;
#X obj 23 -27 osc~ 103.8295;
#X obj 78 63 *~;
#X obj 100 100 sig~;
#X obj 200 200 lop~ 3;
#X obj 300 300 *~ 0.004166667;
#X obj 121 -86 r unit64;
#X obj 23 -27 osc~ 106.87195;
#X obj 78 63 *~;
#X obj 100 100 sig~;
#X obj 200 200 lop~ 3;
#X obj 300 300 *~ 0.004166667;
#X obj 121 -86 r unit65;
#X obj 23 -27 osc~ 110.00355;
#X obj 78 63 *~;
#X obj 100 100 sig~;
#X obj 200 200 lop~ 3;
#X obj 300 300 *~ 0.004166667;
#X obj 121 -86 r unit66;
#X obj 23 -27 osc~ 113.22691;
#X obj 78 63 *~;
#X obj 100 100 sig~;
#X obj 200 200 lop~ 3;
#X obj 300 300 *~ 0.004166667;
#X obj 121 -86 r unit67;
#X obj 23 -27 osc~ 116.54473;
#X obj 78 63 *~;
#X obj 100 100 sig~;
#X obj 200 200 lop~ 3;
#X obj 300 300 *~ 0.004166667;
#X obj 121 -86 r unit68;
#X obj 23 -27 osc~ 119.95977;
#X obj 78 63 *~;
#X obj 100 100 sig~;
#X obj 200 200 lop~ 3;
#X obj 300 300 *~ 0.004166667;
#X obj 121 -86 r unit69;
#X obj 23 -27 osc~ 123.47488;
#X obj 78 63 *~;
#X obj 100 100 sig~;
#X obj 200 200 lop~ 3;
#X obj 300 300 *~ 0.004166667;
#X obj 121 -86 r unit70;
#X obj 23 -27 osc~ 127.09298;
#X obj 78 63 *~;
#X obj 100 100 sig~;
#X obj 200 200 lop~ 3;
#X obj 300 300 *~ 0.004166667;
#X obj 121 -86 r unit71;
#X obj 23 -27 osc~ 130.81711;
#X obj 78 63 *~;
#X obj 100 100 sig~;
#X obj 200 200 lop~ 3;
#X obj 300 300 *~ 0.004166667;
#X obj 121 -86 r unit72;
#X obj 23 -27 osc~ 134.65036;
#X obj 78 63 *~;
#X obj 100 100 sig~;
#X obj 200 200 lop~ 3;
#X obj 300 300 *~ 0.004166667;
#X obj 121 -86 r unit73;
#X obj 23 -27 osc~ 138.59593;
#X obj 78 63 *~;
#X obj 100 100 sig~;
#X obj 200 200 lop~ 3;
#X obj 300 300 *~ 0.004166667;
#X obj 121 -86 r unit74;
#X obj 23 -27 osc~ 142.65712;
#X obj 78 63 *~;
#X obj 100 100 sig~;
#X obj 200 200 lop~ 3;
#X obj 300 300 *~ 0.004166667;
#X obj 121 -86 r unit75;
#X obj 23 -27 osc~ 146.83731;
#X obj 78 63 *~;
#X obj 100 100 sig~;
#X obj 200 200 lop~ 3;
#X obj 300 300 *~ 0.004166667;
#X obj 121 -86 r unit76;
#X obj 23 -27 osc~ 151.13998;
#X obj 78 63 *~;
#X obj 100 100 sig~;
#X obj 200 200 lop~ 3;
#X obj 300 300 *~ 0.004166667;
#X obj 121 -86 r unit77;
#X obj 23 -27 osc~ 155.56874;
#X obj 78 63 *~;
#X obj 100 100 sig~;
#X obj 200 200 lop~ 3;
#X obj 300 300 *~ 0.004166667;
#X obj 121 -86 r unit78;
#X obj 23 -27 osc~ 160.12727;
#X obj 78 63 *~;
#X obj 100 100 sig~;
#X obj 200 200 lop~ 3;
#X obj 300 300 *~ 0.004166667;
#X obj 121 -86 r unit79;
#X obj 23 -27 osc~ 164.81938;
#X obj 78 63 *~;
#X obj 100 100 sig~;
#X obj 200 200 lop~ 3;
#X obj 300 300 *~ 0.004166667;
#X obj 121 -86 r unit80;
#X obj 23 -27 osc~ 169.64897;
#X obj 78 63 *~;
#X obj 100 100 sig~;
#X obj 200 200 lop~ 3;
#X obj 300 300 *~ 0.004166667;
#X obj 121 -86 r unit81;
#X obj 23 -27 osc~ 174.62009;
#X obj 78 63 *~;
#X obj 100 100 sig~;
#X obj 200 200 lop~ 3;
#X obj 300 300 *~ 0.004166667;
#X obj 121 -86 r unit82;
#X obj 23 -27 osc~ 179.73686;
#X obj 78 63 *~;
#X obj 100 100 sig~;
#X obj 200 200 lop~ 3;
#X obj 300 300 *~ 0.004166667;
#X obj 121 -86 r unit83;
#X obj 23 -27 osc~ 185.00357;
#X obj 78 63 *~;
#X obj 100 100 sig~;
#X obj 200 200 lop~ 3;
#X obj 300 300 *~ 0.004166667;
#X obj 121 -86 r unit84;
#X obj 23 -27 osc~ 190.4246;
#X obj 78 63 *~;
#X obj 100 100 sig~;
#X obj 200 200 lop~ 3;
#X obj 300 300 *~ 0.004166667;
#X obj 121 -86 r unit85;
#X obj 23 -27 osc~ 196.0045;
#X obj 78 63 *~;
#X obj 100 100 sig~;
#X obj 200 200 lop~ 3;
#X obj 300 300 *~ 0.004166667;
#X obj 121 -86 r unit86;
#X obj 23 -27 osc~ 201.7479;
#X obj 78 63 *~;
#X obj 100 100 sig~;
#X obj 200 200 lop~ 3;
#X obj 300 300 *~ 0.004166667;
#X obj 121 -86 r unit87;
#X obj 23 -27 osc~ 207.65958;
#X obj 78 63 *~;
#X obj 100 100 sig~;
#X obj 200 200 lop~ 3;
#X obj 300 300 *~ 0.004166667;
#X obj 121 -86 r unit88;
#X obj 23 -27 osc~ 213.74449;
#X obj 78 63 *~;
#X obj 100 100 sig~;
#X obj 200 200 lop~ 3;
#X obj 300 300 *~ 0.004166667;
#X obj 121 -86 r unit89;
#X obj 23 -27 osc~ 220.0077;
#X obj 78 63 *~;
#X obj 100 100 sig~;
#X obj 200 200 lop~ 3;
#X obj 300 300 *~ 0.004166667;
#X obj 121 -86 r unit90;
#X obj 23 -27 osc~ 226.45445;
#X obj 78 63 *~;
#X obj 100 100 sig~;
#X obj 200 200 lop~ 3;
#X obj 300 300 *~ 0.004166667;
#X obj 121 -86 r unit91;
#X obj 23 -27 osc~ 233.0901;
#X obj 78 63 *~;
#X obj 100 100 sig~;
#X obj 200 200 lop~ 3;
#X obj 300 300 *~ 0.004166667;
#X obj 121 -86 r unit92;
#X obj 23 -27 osc~ 239.9202;
#X obj 78 63 *~;
#X obj 100 100 sig~;
#X obj 200 200 lop~ 3;
#X obj 300 300 *~ 0.004166667;
#X obj 121 -86 r unit93;
#X obj 23 -27 osc~ 246.95042;
#X obj 78 63 *~;
#X obj 100 100 sig~;
#X obj 200 200 lop~ 3;
#X obj 300 300 *~ 0.004166667;
#X obj 121 -86 r unit94;
#X obj 23 -27 osc~ 254.18666;
#X obj 78 63 *~;
#X obj 100 100 sig~;
#X obj 200 200 lop~ 3;
#X obj 300 300 *~ 0.004166667;
#X obj 121 -86 r unit95;
#X obj 23 -27 osc~ 261.63492;
#X obj 78 63 *~;
#X obj 100 100 sig~;
#X obj 200 200 lop~ 3;
#X obj 300 300 *~ 0.004166667;
#X obj 121 -86 r unit96;
#X obj 23 -27 osc~ 269.30145;
#X obj 78 63 *~;
#X obj 100 100 sig~;
#X obj 200 200 lop~ 3;
#X obj 300 300 *~ 0.004166667;
#X obj 121 -86 r unit97;
#X obj 23 -27 osc~ 277.19263;
#X obj 78 63 *~;
#X obj 100 100 sig~;
#X obj 200 200 lop~ 3;
#X obj 300 300 *~ 0.004166667;
#X obj 121 -86 r unit98;
#X obj 23 -27 osc~ 285.31503;
#X obj 78 63 *~;
#X obj 100 100 sig~;
#X obj 200 200 lop~ 3;
#X obj 300 300 *~ 0.004166667;
#X obj 121 -86 r unit99;
#X obj 23 -27 osc~ 293.67545;
#X obj 78 63 *~;
#X obj 100 100 sig~;
#X obj 200 200 lop~ 3;
#X obj 300 300 *~ 0.004166667;
#X obj 121 -86 r unit100;
#X obj 23 -27 osc~ 302.28082;
#X obj 78 63 *~;
#X obj 100 100 sig~;
#X obj 200 200 lop~ 3;
#X obj 300 300 *~ 0.004166667;
#X obj 121 -86 r unit101;
#X obj 23 -27 osc~ 311.13837;
#X obj 78 63 *~;
#X obj 100 100 sig~;
#X obj 200 200 lop~ 3;
#X obj 300 300 *~ 0.004166667;
#X obj 121 -86 r unit102;
#X obj 23 -27 osc~ 320.25546;
#X obj 78 63 *~;
#X obj 100 100 sig~;
#X obj 200 200 lop~ 3;
#X obj 300 300 *~ 0.004166667;
#X obj 121 -86 r unit103;
#X obj 23 -27 osc~ 329.6397;
#X obj 78 63 *~;
#X obj 100 100 sig~;
#X obj 200 200 lop~ 3;
#X obj 300 300 *~ 0.004166667;
#X obj 121 -86 r unit104;
#X obj 23 -27 osc~ 339.29892;
#X obj 78 63 *~;
#X obj 100 100 sig~;
#X obj 200 200 lop~ 3;
#X obj 300 300 *~ 0.004166667;
#X obj 121 -86 r unit105;
#X obj 23 -27 osc~ 349.24118;
#X obj 78 63 *~;
#X obj 100 100 sig~;
#X obj 200 200 lop~ 3;
#X obj 300 300 *~ 0.004166667;
#X obj 121 -86 r unit106;
#X obj 23 -27 osc~ 359.47476;
#X obj 78 63 *~;
#X obj 100 100 sig~;
#X obj 200 200 lop~ 3;
#X obj 300 300 *~ 0.004166667;
#X obj 121 -86 r unit107;
#X obj 23 -27 osc~ 370.0082;
#X obj 78 63 *~;
#X obj 100 100 sig~;
#X obj 200 200 lop~ 3;
#X obj 300 300 *~ 0.004166667;
#X obj 121 -86 r unit108;
#X obj 23 -27 osc~ 380.8503;
#X obj 78 63 *~;
#X obj 100 100 sig~;
#X obj 200 200 lop~ 3;
#X obj 300 300 *~ 0.004166667;
#X obj 121 -86 r unit109;
#X obj 23 -27 osc~ 392.01013;
#X obj 78 63 *~;
#X obj 100 100 sig~;
#X obj 200 200 lop~ 3;
#X obj 300 300 *~ 0.004166667;
#X obj 121 -86 r unit110;
#X obj 23 -27 osc~ 403.49695;
#X obj 78 63 *~;
#X obj 100 100 sig~;
#X obj 200 200 lop~ 3;
#X obj 300 300 *~ 0.004166667;
#X obj 121 -86 r unit111;
#X obj 23 -27 osc~ 415.32037;
#X obj 78 63 *~;
#X obj 100 100 sig~;
#X obj 200 200 lop~ 3;
#X obj 300 300 *~ 0.004166667;
#X obj 121 -86 r unit112;
#X obj 23 -27 osc~ 427.49023;
#X obj 78 63 *~;
#X obj 100 100 sig~;
#X obj 200 200 lop~ 3;
#X obj 300 300 *~ 0.004166667;
#X obj 121 -86 r unit113;
#X obj 23 -27 osc~ 440.0167;
#X obj 78 63 *~;
#X obj 100 100 sig~;
#X obj 200 200 lop~ 3;
#X obj 300 300 *~ 0.004166667;
#X obj 121 -86 r unit114;
#X obj 23 -27 osc~ 452.91022;
#X obj 78 63 *~;
#X obj 100 100 sig~;
#X obj 200 200 lop~ 3;
#X obj 300 300 *~ 0.004166667;
#X obj 121 -86 r unit115;
#X obj 23 -27 osc~ 466.18155;
#X obj 78 63 *~;
#X obj 100 100 sig~;
#X obj 200 200 lop~ 3;
#X obj 300 300 *~ 0.004166667;
#X obj 121 -86 r unit116;
#X obj 23 -27 osc~ 479.84177;
#X obj 78 63 *~;
#X obj 100 100 sig~;
#X obj 200 200 lop~ 3;
#X obj 300 300 *~ 0.004166667;
#X obj 121 -86 r unit117;
#X obj 23 -27 osc~ 493.90225;
#X obj 78 63 *~;
#X obj 100 100 sig~;
#X obj 200 200 lop~ 3;
#X obj 300 300 *~ 0.004166667;
#X obj 121 -86 r unit118;
#X obj 23 -27 osc~ 508.37476;
#X obj 78 63 *~;
#X obj 100 100 sig~;
#X obj 200 200 lop~ 3;
#X obj 300 300 *~ 0.004166667;
#X obj 121 -86 r unit119;
#X obj 23 -27 osc~ 523.27136;
#X obj 78 63 *~;
#X obj 100 100 sig~;
#X obj 200 200 lop~ 3;
#X obj 300 300 *~ 0.004166667;
#X obj 121 -86 r unit120;
#X obj 23 -27 osc~ 538.60443;
#X obj 78 63 *~;
#X obj 100 100 sig~;
#X obj 200 200 lop~ 3;
#X obj 300 300 *~ 0.004166667;
#X obj 121 -86 r unit121;
#X obj 23 -27 osc~ 554.38684;
#X obj 78 63 *~;
#X obj 100 100 sig~;
#X obj 200 200 lop~ 3;
#X obj 300 300 *~ 0.004166667;
#X obj 121 -86 r unit122;
#X obj 23 -27 osc~ 570.63165;
#X obj 78 63 *~;
#X obj 100 100 sig~;
#X obj 200 200 lop~ 3;
#X obj 300 300 *~ 0.004166667;
#X obj 121 -86 r unit123;
#X obj 23 -27 osc~ 587.3525;
#X obj 78 63 *~;
#X obj 100 100 sig~;
#X obj 200 200 lop~ 3;
#X obj 300 300 *~ 0.004166667;
#X obj 121 -86 r unit124;
#X obj 23 -27 osc~ 604.5633;
#X obj 78 63 *~;
#X obj 100 100 sig~;
#X obj 200 200 lop~ 3;
#X obj 300 300 *~ 0.004166667;
#X obj 121 -86 r unit125;
#X obj 23 -27 osc~ 622.27844;
#X obj 78 63 *~;
#X obj 100 100 sig~;
#X obj 200 200 lop~ 3;
#X obj 300 300 *~ 0.004166667;
#X obj 121 -86 r unit126;
#X obj 23 -27 osc~ 640.5127;
#X obj 78 63 *~;
#X obj 100 100 sig~;
#X obj 200 200 lop~ 3;
#X obj 300 300 *~ 0.004166667;
#X obj 121 -86 r unit127;
#X obj 23 -27 osc~ 659.28125;
#X obj 78 63 *~;
#X obj 100 100 sig~;
#X obj 200 200 lop~ 3;
#X obj 300 300 *~ 0.004166667;
#X obj 121 -86 r unit128;
#X obj 23 -27 osc~ 678.59973;
#X obj 78 63 *~;
#X obj 100 100 sig~;
#X obj 200 200 lop~ 3;
#X obj 300 300 *~ 0.004166667;
#X obj 121 -86 r unit129;
#X obj 23 -27 osc~ 698.4843;
#X obj 78 63 *~;
#X obj 100 100 sig~;
#X obj 200 200 lop~ 3;
#X obj 300 300 *~ 0.004166667;
#X obj 121 -86 r unit130;
#X obj 23 -27 osc~ 718.95154;
#X obj 78 63 *~;
#X obj 100 100 sig~;
#X obj 200 200 lop~ 3;
#X obj 300 300 *~ 0.004166667;
#X obj 121 -86 r unit131;
#X obj 23 -27 osc~ 740.0185;
#X obj 78 63 *~;
#X obj 100 100 sig~;
#X obj 200 200 lop~ 3;
#X obj 300 300 *~ 0.004166667;
#X obj 121 -86 r unit132;
#X obj 23 -27 osc~ 761.70276;
#X obj 78 63 *~;
#X obj 100 100 sig~;
#X obj 200 200 lop~ 3;
#X obj 300 300 *~ 0.004166667;
#X obj 121 -86 r unit133;
#X obj 23 -27 osc~ 784.02246;
#X obj 78 63 *~;
#X obj 100 100 sig~;
#X obj 200 200 lop~ 3;
#X obj 300 300 *~ 0.004166667;
#X obj 121 -86 r unit134;
#X obj 23 -27 osc~ 806.99615;
#X obj 78 63 *~;
#X obj 100 100 sig~;
#X obj 200 200 lop~ 3;
#X obj 300 300 *~ 0.004166667;
#X obj 121 -86 r unit135;
#X obj 23 -27 osc~ 830.64307;
#X obj 78 63 *~;
#X obj 100 100 sig~;
#X obj 200 200 lop~ 3;
#X obj 300 300 *~ 0.004166667;
#X obj 121 -86 r unit136;
#X obj 23 -27 osc~ 854.98285;
#X obj 78 63 *~;
#X obj 100 100 sig~;
#X obj 200 200 lop~ 3;
#X obj 300 300 *~ 0.004166667;
#X obj 121 -86 r unit137;
#X obj 23 -27 osc~ 880.0359;
#X obj 78 63 *~;
#X obj 100 100 sig~;
#X obj 200 200 lop~ 3;
#X obj 300 300 *~ 0.004166667;
#X obj 121 -86 r unit138;
#X obj 23 -27 osc~ 905.823;
#X obj 78 63 *~;
#X obj 100 100 sig~;
#X obj 200 200 lop~ 3;
#X obj 300 300 *~ 0.004166667;
#X obj 121 -86 r unit139;
#X obj 23 -27 osc~ 932.3657;
#X obj 78 63 *~;
#X obj 100 100 sig~;
#X obj 200 200 lop~ 3;
#X obj 300 300 *~ 0.004166667;
#X obj 121 -86 r unit140;
#X obj 23 -27 osc~ 959.6862;
#X obj 78 63 *~;
#X obj 100 100 sig~;
#X obj 200 200 lop~ 3;
#X obj 300 300 *~ 0.004166667;
#X obj 121 -86 r unit141;
#X obj 23 -27 osc~ 987.8073;
#X obj 78 63 *~;
#X obj 100 100 sig~;
#X obj 200 200 lop~ 3;
#X obj 300 300 *~ 0.004166667;
#X obj 121 -86 r unit142;
#X obj 23 -27 osc~ 1016.7524;
#X obj 78 63 *~;
#X obj 100 100 sig~;
#X obj 200 200 lop~ 3;
#X obj 300 300 *~ 0.004166667;
#X obj 121 -86 r unit143;
#X obj 23 -27 osc~ 1046.5457;
#X obj 78 63 *~;
#X obj 100 100 sig~;
#X obj 200 200 lop~ 3;
#X obj 300 300 *~ 0.004166667;
#X obj 121 -86 r unit144;
#X obj 23 -27 osc~ 1077.2119;
#X obj 78 63 *~;
#X obj 100 100 sig~;
#X obj 200 200 lop~ 3;
#X obj 300 300 *~ 0.004166667;
#X obj 121 -86 r unit145;
#X obj 23 -27 osc~ 1108.7767;
#X obj 78 63 *~;
#X obj 100 100 sig~;
#X obj 200 200 lop~ 3;
#X obj 300 300 *~ 0.004166667;
#X obj 121 -86 r unit146;
#X obj 23 -27 osc~ 1141.2665;
#X obj 78 63 *~;
#X obj 100 100 sig~;
#X obj 200 200 lop~ 3;
#X obj 300 300 *~ 0.004166667;
#X obj 121 -86 r unit147;
#X obj 23 -27 osc~ 1174.7083;
#X obj 78 63 *~;
#X obj 100 100 sig~;
#X obj 200 200 lop~ 3;
#X obj 300 300 *~ 0.004166667;
#X obj 121 -86 r unit148;
#X obj 23 -27 osc~ 1209.13;
#X obj 78 63 *~;
#X obj 100 100 sig~;
#X obj 200 200 lop~ 3;
#X obj 300 300 *~ 0.004166667;
#X obj 121 -86 r unit149;
#X obj 23 -27 osc~ 1244.5604;
#X obj 78 63 *~;
#X obj 100 100 sig~;
#X obj 200 200 lop~ 3;
#X obj 300 300 *~ 0.004166667;
#X obj 121 -86 r unit150;
#X obj 23 -27 osc~ 1281.0289;
#X obj 78 63 *~;
#X obj 100 100 sig~;
#X obj 200 200 lop~ 3;
#X obj 300 300 *~ 0.004166667;
#X obj 121 -86 r unit151;
#X obj 23 -27 osc~ 1318.566;
#X obj 78 63 *~;
#X obj 100 100 sig~;
#X obj 200 200 lop~ 3;
#X obj 300 300 *~ 0.004166667;
#X obj 121 -86 r unit152;
#X obj 23 -27 osc~ 1357.2031;
#X obj 78 63 *~;
#X obj 100 100 sig~;
#X obj 200 200 lop~ 3;
#X obj 300 300 *~ 0.004166667;
#X obj 121 -86 r unit153;
#X obj 23 -27 osc~ 1396.9724;
#X obj 78 63 *~;
#X obj 100 100 sig~;
#X obj 200 200 lop~ 3;
#X obj 300 300 *~ 0.004166667;
#X obj 121 -86 r unit154;
#X obj 23 -27 osc~ 1437.907;
#X obj 78 63 *~;
#X obj 100 100 sig~;
#X obj 200 200 lop~ 3;
#X obj 300 300 *~ 0.004166667;
#X obj 121 -86 r unit155;
#X obj 23 -27 osc~ 1480.041;
#X obj 78 63 *~;
#X obj 100 100 sig~;
#X obj 200 200 lop~ 3;
#X obj 300 300 *~ 0.004166667;
#X obj 121 -86 r unit156;
#X obj 23 -27 osc~ 1523.4097;
#X obj 78 63 *~;
#X obj 100 100 sig~;
#X obj 200 200 lop~ 3;
#X obj 300 300 *~ 0.004166667;
#X obj 121 -86 r unit157;
#X obj 23 -27 osc~ 1568.0492;
#X obj 78 63 *~;
#X obj 100 100 sig~;
#X obj 200 200 lop~ 3;
#X obj 300 300 *~ 0.004166667;
#X obj 121 -86 r unit158;
#X obj 23 -27 osc~ 1613.9967;
#X obj 78 63 *~;
#X obj 100 100 sig~;
#X obj 200 200 lop~ 3;
#X obj 300 300 *~ 0.004166667;
#X obj 121 -86 r unit159;
#X obj 23 -27 osc~ 1661.2906;
#X obj 78 63 *~;
#X obj 100 100 sig~;
#X obj 200 200 lop~ 3;
#X obj 300 300 *~ 0.004166667;
#X obj 121 -86 r unit160;
#X obj 23 -27 osc~ 1709.9703;
#X obj 78 63 *~;
#X obj 100 100 sig~;
#X obj 200 200 lop~ 3;
#X obj 300 300 *~ 0.004166667;
#X obj 121 -86 r unit161;
#X obj 23 -27 osc~ 1760.0765;
#X obj 78 63 *~;
#X obj 100 100 sig~;
#X obj 200 200 lop~ 3;
#X obj 300 300 *~ 0.004166667;
#X obj 121 -86 r unit162;
#X obj 23 -27 osc~ 1811.6509;
#X obj 78 63 *~;
#X obj 100 100 sig~;
#X obj 200 200 lop~ 3;
#X obj 300 300 *~ 0.004166667;
#X obj 121 -86 r unit163;
#X obj 23 -27 osc~ 1864.7366;
#X obj 78 63 *~;
#X obj 100 100 sig~;
#X obj 200 200 lop~ 3;
#X obj 300 300 *~ 0.004166667;
#X obj 121 -86 r unit164;
#X obj 23 -27 osc~ 1919.3778;
#X obj 78 63 *~;
#X obj 100 100 sig~;
#X obj 200 200 lop~ 3;
#X obj 300 300 *~ 0.004166667;
#X obj 121 -86 r unit165;
#X obj 23 -27 osc~ 1975.6201;
#X obj 78 63 *~;
#X obj 100 100 sig~;
#X obj 200 200 lop~ 3;
#X obj 300 300 *~ 0.004166667;
#X obj 121 -86 r unit166;
#X obj 23 -27 osc~ 2033.5105;
#X obj 78 63 *~;
#X obj 100 100 sig~;
#X obj 200 200 lop~ 3;
#X obj 300 300 *~ 0.004166667;
#X obj 121 -86 r unit167;
#X obj 23 -27 osc~ 2093.0972;
#X obj 78 63 *~;
#X obj 100 100 sig~;
#X obj 200 200 lop~ 3;
#X obj 300 300 *~ 0.004166667;
#X obj 121 -86 r unit168;
#X obj 23 -27 osc~ 2154.43;
#X obj 78 63 *~;
#X obj 100 100 sig~;
#X obj 200 200 lop~ 3;
#X obj 300 300 *~ 0.004166667;
#X obj 121 -86 r unit169;
#X obj 23 -27 osc~ 2217.5598;
#X obj 78 63 *~;
#X obj 100 100 sig~;
#X obj 200 200 lop~ 3;
#X obj 300 300 *~ 0.004166667;
#X obj 121 -86 r unit170;
#X obj 23 -27 osc~ 2282.5396;
#X obj 78 63 *~;
#X obj 100 100 sig~;
#X obj 200 200 lop~ 3;
#X obj 300 300 *~ 0.004166667;
#X obj 121 -86 r unit171;
#X obj 23 -27 osc~ 2349.4233;
#X obj 78 63 *~;
#X obj 100 100 sig~;
#X obj 200 200 lop~ 3;
#X obj 300 300 *~ 0.004166667;
#X obj 121 -86 r unit172;
#X obj 23 -27 osc~ 2418.267;
#X obj 78 63 *~;
#X obj 100 100 sig~;
#X obj 200 200 lop~ 3;
#X obj 300 300 *~ 0.004166667;
#X obj 121 -86 r unit173;
#X obj 23 -27 osc~ 2489.128;
#X obj 78 63 *~;
#X obj 100 100 sig~;
#X obj 200 200 lop~ 3;
#X obj 300 300 *~ 0.004166667;
#X obj 121 -86 r unit174;
#X obj 23 -27 osc~ 2562.0652;
#X obj 78 63 *~;
#X obj 100 100 sig~;
#X obj 200 200 lop~ 3;
#X obj 300 300 *~ 0.004166667;
#X obj 121 -86 r unit175;
#X obj 23 -27 osc~ 2637.1396;
#X obj 78 63 *~;
#X obj 100 100 sig~;
#X obj 200 200 lop~ 3;
#X obj 300 300 *~ 0.004166667;
#X obj 121 -86 r unit176;
#X obj 23 -27 osc~ 2714.414;
#X obj 78 63 *~;
#X obj 100 100 sig~;
#X obj 200 200 lop~ 3;
#X obj 300 300 *~ 0.004166667;
#X obj 121 -86 r unit177;
#X obj 23 -27 osc~ 2793.953;
#X obj 78 63 *~;
#X obj 100 100 sig~;
#X obj 200 200 lop~ 3;
#X obj 300 300 *~ 0.004166667;
#X obj 121 -86 r unit178;
#X obj 23 -27 osc~ 2875.8223;
#X obj 78 63 *~;
#X obj 100 100 sig~;
#X obj 200 200 lop~ 3;
#X obj 300 300 *~ 0.004166667;
#X obj 121 -86 r unit179;
#X obj 23 -27 osc~ 2960.0906;
#X obj 78 63 *~;
#X obj 100 100 sig~;
#X obj 200 200 lop~ 3;
#X obj 300 300 *~ 0.004166667;
#X obj 121 -86 r unit180;
#X obj 23 -27 osc~ 3046.8281;
#X obj 78 63 *~;
#X obj 100 100 sig~;
#X obj 200 200 lop~ 3;
#X obj 300 300 *~ 0.004166667;
#X obj 121 -86 r unit181;
#X obj 23 -27 osc~ 3136.1074;
#X obj 78 63 *~;
#X obj 100 100 sig~;
#X obj 200 200 lop~ 3;
#X obj 300 300 *~ 0.004166667;
#X obj 121 -86 r unit182;
#X obj 23 -27 osc~ 3228.0027;
#X obj 78 63 *~;
#X obj 100 100 sig~;
#X obj 200 200 lop~ 3;
#X obj 300 300 *~ 0.004166667;
#X obj 121 -86 r unit183;
#X obj 23 -27 osc~ 3322.5908;
#X obj 78 63 *~;
#X obj 100 100 sig~;
#X obj 200 200 lop~ 3;
#X obj 300 300 *~ 0.004166667;
#X obj 121 -86 r unit184;
#X obj 23 -27 osc~ 3419.9507;
#X obj 78 63 *~;
#X obj 100 100 sig~;
#X obj 200 200 lop~ 3;
#X obj 300 300 *~ 0.004166667;
#X obj 121 -86 r unit185;
#X obj 23 -27 osc~ 3520.1633;
#X obj 78 63 *~;
#X obj 100 100 sig~;
#X obj 200 200 lop~ 3;
#X obj 300 300 *~ 0.004166667;
#X obj 121 -86 r unit186;
#X obj 23 -27 osc~ 3623.3125;
#X obj 78 63 *~;
#X obj 100 100 sig~;
#X obj 200 200 lop~ 3;
#X obj 300 300 *~ 0.004166667;
#X obj 121 -86 r unit187;
#X obj 23 -27 osc~ 3729.4841;
#X obj 78 63 *~;
#X obj 100 100 sig~;
#X obj 200 200 lop~ 3;
#X obj 300 300 *~ 0.004166667;
#X obj 121 -86 r unit188;
#X obj 23 -27 osc~ 3838.7668;
#X obj 78 63 *~;
#X obj 100 100 sig~;
#X obj 200 200 lop~ 3;
#X obj 300 300 *~ 0.004166667;
#X obj 121 -86 r unit189;
#X obj 23 -27 osc~ 3951.2517;
#X obj 78 63 *~;
#X obj 100 100 sig~;
#X obj 200 200 lop~ 3;
#X obj 300 300 *~ 0.004166667;
#X obj 121 -86 r unit190;
#X obj 23 -27 osc~ 4067.0327;
#X obj 78 63 *~;
#X obj 100 100 sig~;
#X obj 200 200 lop~ 3;
#X obj 300 300 *~ 0.004166667;
#X obj 121 -86 r unit191;
#X obj 23 -27 osc~ 4186.2065;
#X obj 78 63 *~;
#X obj 100 100 sig~;
#X obj 200 200 lop~ 3;
#X obj 300 300 *~ 0.004166667;
#X obj 121 -86 r unit192;
#X obj 23 -27 osc~ 4308.872;
#X obj 78 63 *~;
#X obj 100 100 sig~;
#X obj 200 200 lop~ 3;
#X obj 300 300 *~ 0.004166667;
#X obj 121 -86 r unit193;
#X obj 23 -27 osc~ 4435.1323;
#X obj 78 63 *~;
#X obj 100 100 sig~;
#X obj 200 200 lop~ 3;
#X obj 300 300 *~ 0.004166667;
#X obj 121 -86 r unit194;
#X obj 23 -27 osc~ 4565.0923;
#X obj 78 63 *~;
#X obj 100 100 sig~;
#X obj 200 200 lop~ 3;
#X obj 300 300 *~ 0.004166667;
#X obj 121 -86 r unit195;
#X obj 23 -27 osc~ 4698.8604;
#X obj 78 63 *~;
#X obj 100 100 sig~;
#X obj 200 200 lop~ 3;
#X obj 300 300 *~ 0.004166667;
#X obj 121 -86 r unit196;
#X obj 23 -27 osc~ 4836.548;
#X obj 78 63 *~;
#X obj 100 100 sig~;
#X obj 200 200 lop~ 3;
#X obj 300 300 *~ 0.004166667;
#X obj 121 -86 r unit197;
#X obj 23 -27 osc~ 4978.27;
#X obj 78 63 *~;
#X obj 100 100 sig~;
#X obj 200 200 lop~ 3;
#X obj 300 300 *~ 0.004166667;
#X obj 121 -86 r unit198;
#X obj 23 -27 osc~ 5124.145;
#X obj 78 63 *~;
#X obj 100 100 sig~;
#X obj 200 200 lop~ 3;
#X obj 300 300 *~ 0.004166667;
#X obj 121 -86 r unit199;
#X obj 23 -27 osc~ 5274.2944;
#X obj 78 63 *~;
#X obj 100 100 sig~;
#X obj 200 200 lop~ 3;
#X obj 300 300 *~ 0.004166667;
#X obj 121 -86 r unit200;
#X obj 23 -27 osc~ 5428.8438;
#X obj 78 63 *~;
#X obj 100 100 sig~;
#X obj 200 200 lop~ 3;
#X obj 300 300 *~ 0.004166667;
#X obj 121 -86 r unit201;
#X obj 23 -27 osc~ 5587.922;
#X obj 78 63 *~;
#X obj 100 100 sig~;
#X obj 200 200 lop~ 3;
#X obj 300 300 *~ 0.004166667;
#X obj 121 -86 r unit202;
#X obj 23 -27 osc~ 5751.661;
#X obj 78 63 *~;
#X obj 100 100 sig~;
#X obj 200 200 lop~ 3;
#X obj 300 300 *~ 0.004166667;
#X obj 121 -86 r unit203;
#X obj 23 -27 osc~ 5920.198;
#X obj 78 63 *~;
#X obj 100 100 sig~;
#X obj 200 200 lop~ 3;
#X obj 300 300 *~ 0.004166667;
#X obj 121 -86 r unit204;
#X obj 23 -27 osc~ 6093.674;
#X obj 78 63 *~;
#X obj 100 100 sig~;
#X obj 200 200 lop~ 3;
#X obj 300 300 *~ 0.004166667;
#X obj 121 -86 r unit205;
#X obj 23 -27 osc~ 6272.233;
#X obj 78 63 *~;
#X obj 100 100 sig~;
#X obj 200 200 lop~ 3;
#X obj 300 300 *~ 0.004166667;
#X obj 121 -86 r unit206;
#X obj 23 -27 osc~ 6456.024;
#X obj 78 63 *~;
#X obj 100 100 sig~;
#X obj 200 200 lop~ 3;
#X obj 300 300 *~ 0.004166667;
#X obj 121 -86 r unit207;
#X obj 23 -27 osc~ 6645.2007;
#X obj 78 63 *~;
#X obj 100 100 sig~;
#X obj 200 200 lop~ 3;
#X obj 300 300 *~ 0.004166667;
#X obj 121 -86 r unit208;
#X obj 23 -27 osc~ 6839.921;
#X obj 78 63 *~;
#X obj 100 100 sig~;
#X obj 200 200 lop~ 3;
#X obj 300 300 *~ 0.004166667;
#X obj 121 -86 r unit209;
#X obj 23 -27 osc~ 7040.3467;
#X obj 78 63 *~;
#X obj 100 100 sig~;
#X obj 200 200 lop~ 3;
#X obj 300 300 *~ 0.004166667;
#X obj 121 -86 r unit210;
#X obj 23 -27 osc~ 7246.6455;
#X obj 78 63 *~;
#X obj 100 100 sig~;
#X obj 200 200 lop~ 3;
#X obj 300 300 *~ 0.004166667;
#X obj 121 -86 r unit211;
#X obj 23 -27 osc~ 7458.9893;
#X obj 78 63 *~;
#X obj 100 100 sig~;
#X obj 200 200 lop~ 3;
#X obj 300 300 *~ 0.004166667;
#X obj 121 -86 r unit212;
#X obj 23 -27 osc~ 7677.555;
#X obj 78 63 *~;
#X obj 100 100 sig~;
#X obj 200 200 lop~ 3;
#X obj 300 300 *~ 0.004166667;
#X obj 121 -86 r unit213;
#X obj 23 -27 osc~ 7902.526;
#X obj 78 63 *~;
#X obj 100 100 sig~;
#X obj 200 200 lop~ 3;
#X obj 300 300 *~ 0.004166667;
#X obj 121 -86 r unit214;
#X obj 23 -27 osc~ 8134.0884;
#X obj 78 63 *~;
#X obj 100 100 sig~;
#X obj 200 200 lop~ 3;
#X obj 300 300 *~ 0.004166667;
#X obj 121 -86 r unit215;
#X obj 23 -27 osc~ 8372.437;
#X obj 78 63 *~;
#X obj 100 100 sig~;
#X obj 200 200 lop~ 3;
#X obj 300 300 *~ 0.004166667;
#X obj 121 -86 r unit216;
#X obj 23 -27 osc~ 8617.769;
#X obj 78 63 *~;
#X obj 100 100 sig~;
#X obj 200 200 lop~ 3;
#X obj 300 300 *~ 0.004166667;
#X obj 121 -86 r unit217;
#X obj 23 -27 osc~ 8870.289;
#X obj 78 63 *~;
#X obj 100 100 sig~;
#X obj 200 200 lop~ 3;
#X obj 300 300 *~ 0.004166667;
#X obj 121 -86 r unit218;
#X obj 23 -27 osc~ 9130.209;
#X obj 78 63 *~;
#X obj 100 100 sig~;
#X obj 200 200 lop~ 3;
#X obj 300 300 *~ 0.004166667;
#X obj 121 -86 r unit219;
#X obj 23 -27 osc~ 9397.746;
#X obj 78 63 *~;
#X obj 100 100 sig~;
#X obj 200 200 lop~ 3;
#X obj 300 300 *~ 0.004166667;
#X obj 121 -86 r unit220;
#X obj 23 -27 osc~ 9673.122;
#X obj 78 63 *~;
#X obj 100 100 sig~;
#X obj 200 200 lop~ 3;
#X obj 300 300 *~ 0.004166667;
#X obj 121 -86 r unit221;
#X obj 23 -27 osc~ 9956.567;
#X obj 78 63 *~;
#X obj 100 100 sig~;
#X obj 200 200 lop~ 3;
#X obj 300 300 *~ 0.004166667;
#X obj 121 -86 r unit222;
#X obj 23 -27 osc~ 10248.318;
#X obj 78 63 *~;
#X obj 100 100 sig~;
#X obj 200 200 lop~ 3;
#X obj 300 300 *~ 0.004166667;
#X obj 121 -86 r unit223;
#X obj 23 -27 osc~ 10548.618;
#X obj 78 63 *~;
#X obj 100 100 sig~;
#X obj 200 200 lop~ 3;
#X obj 300 300 *~ 0.004166667;
#X obj 121 -86 r unit224;
#X obj 23 -27 osc~ 10857.718;
#X obj 78 63 *~;
#X obj 100 100 sig~;
#X obj 200 200 lop~ 3;
#X obj 300 300 *~ 0.004166667;
#X obj 121 -86 r unit225;
#X obj 23 -27 osc~ 11175.875;
#X obj 78 63 *~;
#X obj 100 100 sig~;
#X obj 200 200 lop~ 3;
#X obj 300 300 *~ 0.004166667;
#X obj 121 -86 r unit226;
#X obj 23 -27 osc~ 11503.3545;
#X obj 78 63 *~;
#X obj 100 100 sig~;
#X obj 200 200 lop~ 3;
#X obj 300 300 *~ 0.004166667;
#X obj 121 -86 r unit227;
#X obj 23 -27 osc~ 11840.43;
#X obj 78 63 *~;
#X obj 100 100 sig~;
#X obj 200 200 lop~ 3;
#X obj 300 300 *~ 0.004166667;
#X obj 121 -86 r unit228;
#X obj 23 -27 osc~ 12187.382;
#X obj 78 63 *~;
#X obj 100 100 sig~;
#X obj 200 200 lop~ 3;
#X obj 300 300 *~ 0.004166667;
#X obj 121 -86 r unit229;
#X obj 23 -27 osc~ 12544.501;
#X obj 78 63 *~;
#X obj 100 100 sig~;
#X obj 200 200 lop~ 3;
#X obj 300 300 *~ 0.004166667;
#X obj 121 -86 r unit230;
#X obj 23 -27 osc~ 12912.084;
#X obj 78 63 *~;
#X obj 100 100 sig~;
#X obj 200 200 lop~ 3;
#X obj 300 300 *~ 0.004166667;
#X obj 121 -86 r unit231;
#X obj 23 -27 osc~ 13290.438;
#X obj 78 63 *~;
#X obj 100 100 sig~;
#X obj 200 200 lop~ 3;
#X obj 300 300 *~ 0.004166667;
#X obj 121 -86 r unit232;
#X obj 23 -27 osc~ 13679.88;
#X obj 78 63 *~;
#X obj 100 100 sig~;
#X obj 200 200 lop~ 3;
#X obj 300 300 *~ 0.004166667;
#X obj 121 -86 r unit233;
#X obj 23 -27 osc~ 14080.732;
#X obj 78 63 *~;
#X obj 100 100 sig~;
#X obj 200 200 lop~ 3;
#X obj 300 300 *~ 0.004166667;
#X obj 121 -86 r unit234;
#X obj 23 -27 osc~ 14493.331;
#X obj 78 63 *~;
#X obj 100 100 sig~;
#X obj 200 200 lop~ 3;
#X obj 300 300 *~ 0.004166667;
#X obj 121 -86 r unit235;
#X obj 23 -27 osc~ 14918.02;
#X obj 78 63 *~;
#X obj 100 100 sig~;
#X obj 200 200 lop~ 3;
#X obj 300 300 *~ 0.004166667;
#X obj 121 -86 r unit236;
#X obj 23 -27 osc~ 15355.152;
#X obj 78 63 *~;
#X obj 100 100 sig~;
#X obj 200 200 lop~ 3;
#X obj 300 300 *~ 0.004166667;
#X obj 121 -86 r unit237;
#X obj 23 -27 osc~ 15805.095;
#X obj 78 63 *~;
#X obj 100 100 sig~;
#X obj 200 200 lop~ 3;
#X obj 300 300 *~ 0.004166667;
#X obj 121 -86 r unit238;
#X obj 23 -27 osc~ 16268.222;
#X obj 78 63 *~;
#X obj 100 100 sig~;
#X obj 200 200 lop~ 3;
#X obj 300 300 *~ 0.004166667;
#X obj 121 -86 r unit239;
#X obj 23 -27 osc~ 16744.92;
#X obj 78 63 *~;
#X obj 100 100 sig~;
#X obj 200 200 lop~ 3;
#X obj 300 300 *~ 0.004166667;
#X connect 1 0 4 0;
#X connect 4 0 5 0;
#X connect 5 0 3 1;
#X connect 2 0 3 0;
#X connect 3 0 6 0;
#X connect 6 0  0  0;
#X connect 6 0  0  1;
#X connect 7 0 10 0;
#X connect 10 0 11 0;
#X connect 11 0 9 1;
#X connect 8 0 9 0;
#X connect 9 0 12 0;
#X connect 12 0  0  0;
#X connect 12 0  0  1;
#X connect 13 0 16 0;
#X connect 16 0 17 0;
#X connect 17 0 15 1;
#X connect 14 0 15 0;
#X connect 15 0 18 0;
#X connect 18 0  0  0;
#X connect 18 0  0  1;
#X connect 19 0 22 0;
#X connect 22 0 23 0;
#X connect 23 0 21 1;
#X connect 20 0 21 0;
#X connect 21 0 24 0;
#X connect 24 0  0  0;
#X connect 24 0  0  1;
#X connect 25 0 28 0;
#X connect 28 0 29 0;
#X connect 29 0 27 1;
#X connect 26 0 27 0;
#X connect 27 0 30 0;
#X connect 30 0  0  0;
#X connect 30 0  0  1;
#X connect 31 0 34 0;
#X connect 34 0 35 0;
#X connect 35 0 33 1;
#X connect 32 0 33 0;
#X connect 33 0 36 0;
#X connect 36 0  0  0;
#X connect 36 0  0  1;
#X connect 37 0 40 0;
#X connect 40 0 41 0;
#X connect 41 0 39 1;
#X connect 38 0 39 0;
#X connect 39 0 42 0;
#X connect 42 0  0  0;
#X connect 42 0  0  1;
#X connect 43 0 46 0;
#X connect 46 0 47 0;
#X connect 47 0 45 1;
#X connect 44 0 45 0;
#X connect 45 0 48 0;
#X connect 48 0  0  0;
#X connect 48 0  0  1;
#X connect 49 0 52 0;
#X connect 52 0 53 0;
#X connect 53 0 51 1;
#X connect 50 0 51 0;
#X connect 51 0 54 0;
#X connect 54 0  0  0;
#X connect 54 0  0  1;
#X connect 55 0 58 0;
#X connect 58 0 59 0;
#X connect 59 0 57 1;
#X connect 56 0 57 0;
#X connect 57 0 60 0;
#X connect 60 0  0  0;
#X connect 60 0  0  1;
#X connect 61 0 64 0;
#X connect 64 0 65 0;
#X connect 65 0 63 1;
#X connect 62 0 63 0;
#X connect 63 0 66 0;
#X connect 66 0  0  0;
#X connect 66 0  0  1;
#X connect 67 0 70 0;
#X connect 70 0 71 0;
#X connect 71 0 69 1;
#X connect 68 0 69 0;
#X connect 69 0 72 0;
#X connect 72 0  0  0;
#X connect 72 0  0  1;
#X connect 73 0 76 0;
#X connect 76 0 77 0;
#X connect 77 0 75 1;
#X connect 74 0 75 0;
#X connect 75 0 78 0;
#X connect 78 0  0  0;
#X connect 78 0  0  1;
#X connect 79 0 82 0;
#X connect 82 0 83 0;
#X connect 83 0 81 1;
#X connect 80 0 81 0;
#X connect 81 0 84 0;
#X connect 84 0  0  0;
#X connect 84 0  0  1;
#X connect 85 0 88 0;
#X connect 88 0 89 0;
#X connect 89 0 87 1;
#X connect 86 0 87 0;
#X connect 87 0 90 0;
#X connect 90 0  0  0;
#X connect 90 0  0  1;
#X connect 91 0 94 0;
#X connect 94 0 95 0;
#X connect 95 0 93 1;
#X connect 92 0 93 0;
#X connect 93 0 96 0;
#X connect 96 0  0  0;
#X connect 96 0  0  1;
#X connect 97 0 100 0;
#X connect 100 0 101 0;
#X connect 101 0 99 1;
#X connect 98 0 99 0;
#X connect 99 0 102 0;
#X connect 102 0  0  0;
#X connect 102 0  0  1;
#X connect 103 0 106 0;
#X connect 106 0 107 0;
#X connect 107 0 105 1;
#X connect 104 0 105 0;
#X connect 105 0 108 0;
#X connect 108 0  0  0;
#X connect 108 0  0  1;
#X connect 109 0 112 0;
#X connect 112 0 113 0;
#X connect 113 0 111 1;
#X connect 110 0 111 0;
#X connect 111 0 114 0;
#X connect 114 0  0  0;
#X connect 114 0  0  1;
#X connect 115 0 118 0;
#X connect 118 0 119 0;
#X connect 119 0 117 1;
#X connect 116 0 117 0;
#X connect 117 0 120 0;
#X connect 120 0  0  0;
#X connect 120 0  0  1;
#X connect 121 0 124 0;
#X connect 124 0 125 0;
#X connect 125 0 123 1;
#X connect 122 0 123 0;
#X connect 123 0 126 0;
#X connect 126 0  0  0;
#X connect 126 0  0  1;
#X connect 127 0 130 0;
#X connect 130 0 131 0;
#X connect 131 0 129 1;
#X connect 128 0 129 0;
#X connect 129 0 132 0;
#X connect 132 0  0  0;
#X connect 132 0  0  1;
#X connect 133 0 136 0;
#X connect 136 0 137 0;
#X connect 137 0 135 1;
#X connect 134 0 135 0;
#X connect 135 0 138 0;
#X connect 138 0  0  0;
#X connect 138 0  0  1;
#X connect 139 0 142 0;
#X connect 142 0 143 0;
#X connect 143 0 141 1;
#X connect 140 0 141 0;
#X connect 141 0 144 0;
#X connect 144 0  0  0;
#X connect 144 0  0  1;
#X connect 145 0 148 0;
#X connect 148 0 149 0;
#X connect 149 0 147 1;
#X connect 146 0 147 0;
#X connect 147 0 150 0;
#X connect 150 0  0  0;
#X connect 150 0  0  1;
#X connect 151 0 154 0;
#X connect 154 0 155 0;
#X connect 155 0 153 1;
#X connect 152 0 153 0;
#X connect 153 0 156 0;
#X connect 156 0  0  0;
#X connect 156 0  0  1;
#X connect 157 0 160 0;
#X connect 160 0 161 0;
#X connect 161 0 159 1;
#X connect 158 0 159 0;
#X connect 159 0 162 0;
#X connect 162 0  0  0;
#X connect 162 0  0  1;
#X connect 163 0 166 0;
#X connect 166 0 167 0;
#X connect 167 0 165 1;
#X connect 164 0 165 0;
#X connect 165 0 168 0;
#X connect 168 0  0  0;
#X connect 168 0  0  1;
#X connect 169 0 172 0;
#X connect 172 0 173 0;
#X connect 173 0 171 1;
#X connect 170 0 171 0;
#X connect 171 0 174 0;
#X connect 174 0  0  0;
#X connect 174 0  0  1;
#X connect 175 0 178 0;
#X connect 178 0 179 0;
#X connect 179 0 177 1;
#X connect 176 0 177 0;
#X connect 177 0 180 0;
#X connect 180 0  0  0;
#X connect 180 0  0  1;
#X connect 181 0 184 0;
#X connect 184 0 185 0;
#X connect 185 0 183 1;
#X connect 182 0 183 0;
#X connect 183 0 186 0;
#X connect 186 0  0  0;
#X connect 186 0  0  1;
#X connect 187 0 190 0;
#X connect 190 0 191 0;
#X connect 191 0 189 1;
#X connect 188 0 189 0;
#X connect 189 0 192 0;
#X connect 192 0  0  0;
#X connect 192 0  0  1;
#X connect 193 0 196 0;
#X connect 196 0 197 0;
#X connect 197 0 195 1;
#X connect 194 0 195 0;
#X connect 195 0 198 0;
#X connect 198 0  0  0;
#X connect 198 0  0  1;
#X connect 199 0 202 0;
#X connect 202 0 203 0;
#X connect 203 0 201 1;
#X connect 200 0 201 0;
#X connect 201 0 204 0;
#X connect 204 0  0  0;
#X connect 204 0  0  1;
#X connect 205 0 208 0;
#X connect 208 0 209 0;
#X connect 209 0 207 1;
#X connect 206 0 207 0;
#X connect 207 0 210 0;
#X connect 210 0  0  0;
#X connect 210 0  0  1;
#X connect 211 0 214 0;
#X connect 214 0 215 0;
#X connect 215 0 213 1;
#X connect 212 0 213 0;
#X connect 213 0 216 0;
#X connect 216 0  0  0;
#X connect 216 0  0  1;
#X connect 217 0 220 0;
#X connect 220 0 221 0;
#X connect 221 0 219 1;
#X connect 218 0 219 0;
#X connect 219 0 222 0;
#X connect 222 0  0  0;
#X connect 222 0  0  1;
#X connect 223 0 226 0;
#X connect 226 0 227 0;
#X connect 227 0 225 1;
#X connect 224 0 225 0;
#X connect 225 0 228 0;
#X connect 228 0  0  0;
#X connect 228 0  0  1;
#X connect 229 0 232 0;
#X connect 232 0 233 0;
#X connect 233 0 231 1;
#X connect 230 0 231 0;
#X connect 231 0 234 0;
#X connect 234 0  0  0;
#X connect 234 0  0  1;
#X connect 235 0 238 0;
#X connect 238 0 239 0;
#X connect 239 0 237 1;
#X connect 236 0 237 0;
#X connect 237 0 240 0;
#X connect 240 0  0  0;
#X connect 240 0  0  1;
#X connect 241 0 244 0;
#X connect 244 0 245 0;
#X connect 245 0 243 1;
#X connect 242 0 243 0;
#X connect 243 0 246 0;
#X connect 246 0  0  0;
#X connect 246 0  0  1;
#X connect 247 0 250 0;
#X connect 250 0 251 0;
#X connect 251 0 249 1;
#X connect 248 0 249 0;
#X connect 249 0 252 0;
#X connect 252 0  0  0;
#X connect 252 0  0  1;
#X connect 253 0 256 0;
#X connect 256 0 257 0;
#X connect 257 0 255 1;
#X connect 254 0 255 0;
#X connect 255 0 258 0;
#X connect 258 0  0  0;
#X connect 258 0  0  1;
#X connect 259 0 262 0;
#X connect 262 0 263 0;
#X connect 263 0 261 1;
#X connect 260 0 261 0;
#X connect 261 0 264 0;
#X connect 264 0  0  0;
#X connect 264 0  0  1;
#X connect 265 0 268 0;
#X connect 268 0 269 0;
#X connect 269 0 267 1;
#X connect 266 0 267 0;
#X connect 267 0 270 0;
#X connect 270 0  0  0;
#X connect 270 0  0  1;
#X connect 271 0 274 0;
#X connect 274 0 275 0;
#X connect 275 0 273 1;
#X connect 272 0 273 0;
#X connect 273 0 276 0;
#X connect 276 0  0  0;
#X connect 276 0  0  1;
#X connect 277 0 280 0;
#X connect 280 0 281 0;
#X connect 281 0 279 1;
#X connect 278 0 279 0;
#X connect 279 0 282 0;
#X connect 282 0  0  0;
#X connect 282 0  0  1;
#X connect 283 0 286 0;
#X connect 286 0 287 0;
#X connect 287 0 285 1;
#X connect 284 0 285 0;
#X connect 285 0 288 0;
#X connect 288 0  0  0;
#X connect 288 0  0  1;
#X connect 289 0 292 0;
#X connect 292 0 293 0;
#X connect 293 0 291 1;
#X connect 290 0 291 0;
#X connect 291 0 294 0;
#X connect 294 0  0  0;
#X connect 294 0  0  1;
#X connect 295 0 298 0;
#X connect 298 0 299 0;
#X connect 299 0 297 1;
#X connect 296 0 297 0;
#X connect 297 0 300 0;
#X connect 300 0  0  0;
#X connect 300 0  0  1;
#X connect 301 0 304 0;
#X connect 304 0 305 0;
#X connect 305 0 303 1;
#X connect 302 0 303 0;
#X connect 303 0 306 0;
#X connect 306 0  0  0;
#X connect 306 0  0  1;
#X connect 307 0 310 0;
#X connect 310 0 311 0;
#X connect 311 0 309 1;
#X connect 308 0 309 0;
#X connect 309 0 312 0;
#X connect 312 0  0  0;
#X connect 312 0  0  1;
#X connect 313 0 316 0;
#X connect 316 0 317 0;
#X connect 317 0 315 1;
#X connect 314 0 315 0;
#X connect 315 0 318 0;
#X connect 318 0  0  0;
#X connect 318 0  0  1;
#X connect 319 0 322 0;
#X connect 322 0 323 0;
#X connect 323 0 321 1;
#X connect 320 0 321 0;
#X connect 321 0 324 0;
#X connect 324 0  0  0;
#X connect 324 0  0  1;
#X connect 325 0 328 0;
#X connect 328 0 329 0;
#X connect 329 0 327 1;
#X connect 326 0 327 0;
#X connect 327 0 330 0;
#X connect 330 0  0  0;
#X connect 330 0  0  1;
#X connect 331 0 334 0;
#X connect 334 0 335 0;
#X connect 335 0 333 1;
#X connect 332 0 333 0;
#X connect 333 0 336 0;
#X connect 336 0  0  0;
#X connect 336 0  0  1;
#X connect 337 0 340 0;
#X connect 340 0 341 0;
#X connect 341 0 339 1;
#X connect 338 0 339 0;
#X connect 339 0 342 0;
#X connect 342 0  0  0;
#X connect 342 0  0  1;
#X connect 343 0 346 0;
#X connect 346 0 347 0;
#X connect 347 0 345 1;
#X connect 344 0 345 0;
#X connect 345 0 348 0;
#X connect 348 0  0  0;
#X connect 348 0  0  1;
#X connect 349 0 352 0;
#X connect 352 0 353 0;
#X connect 353 0 351 1;
#X connect 350 0 351 0;
#X connect 351 0 354 0;
#X connect 354 0  0  0;
#X connect 354 0  0  1;
#X connect 355 0 358 0;
#X connect 358 0 359 0;
#X connect 359 0 357 1;
#X connect 356 0 357 0;
#X connect 357 0 360 0;
#X connect 360 0  0  0;
#X connect 360 0  0  1;
#X connect 361 0 364 0;
#X connect 364 0 365 0;
#X connect 365 0 363 1;
#X connect 362 0 363 0;
#X connect 363 0 366 0;
#X connect 366 0  0  0;
#X connect 366 0  0  1;
#X connect 367 0 370 0;
#X connect 370 0 371 0;
#X connect 371 0 369 1;
#X connect 368 0 369 0;
#X connect 369 0 372 0;
#X connect 372 0  0  0;
#X connect 372 0  0  1;
#X connect 373 0 376 0;
#X connect 376 0 377 0;
#X connect 377 0 375 1;
#X connect 374 0 375 0;
#X connect 375 0 378 0;
#X connect 378 0  0  0;
#X connect 378 0  0  1;
#X connect 379 0 382 0;
#X connect 382 0 383 0;
#X connect 383 0 381 1;
#X connect 380 0 381 0;
#X connect 381 0 384 0;
#X connect 384 0  0  0;
#X connect 384 0  0  1;
#X connect 385 0 388 0;
#X connect 388 0 389 0;
#X connect 389 0 387 1;
#X connect 386 0 387 0;
#X connect 387 0 390 0;
#X connect 390 0  0  0;
#X connect 390 0  0  1;
#X connect 391 0 394 0;
#X connect 394 0 395 0;
#X connect 395 0 393 1;
#X connect 392 0 393 0;
#X connect 393 0 396 0;
#X connect 396 0  0  0;
#X connect 396 0  0  1;
#X connect 397 0 400 0;
#X connect 400 0 401 0;
#X connect 401 0 399 1;
#X connect 398 0 399 0;
#X connect 399 0 402 0;
#X connect 402 0  0  0;
#X connect 402 0  0  1;
#X connect 403 0 406 0;
#X connect 406 0 407 0;
#X connect 407 0 405 1;
#X connect 404 0 405 0;
#X connect 405 0 408 0;
#X connect 408 0  0  0;
#X connect 408 0  0  1;
#X connect 409 0 412 0;
#X connect 412 0 413 0;
#X connect 413 0 411 1;
#X connect 410 0 411 0;
#X connect 411 0 414 0;
#X connect 414 0  0  0;
#X connect 414 0  0  1;
#X connect 415 0 418 0;
#X connect 418 0 419 0;
#X connect 419 0 417 1;
#X connect 416 0 417 0;
#X connect 417 0 420 0;
#X connect 420 0  0  0;
#X connect 420 0  0  1;
#X connect 421 0 424 0;
#X connect 424 0 425 0;
#X connect 425 0 423 1;
#X connect 422 0 423 0;
#X connect 423 0 426 0;
#X connect 426 0  0  0;
#X connect 426 0  0  1;
#X connect 427 0 430 0;
#X connect 430 0 431 0;
#X connect 431 0 429 1;
#X connect 428 0 429 0;
#X connect 429 0 432 0;
#X connect 432 0  0  0;
#X connect 432 0  0  1;
#X connect 433 0 436 0;
#X connect 436 0 437 0;
#X connect 437 0 435 1;
#X connect 434 0 435 0;
#X connect 435 0 438 0;
#X connect 438 0  0  0;
#X connect 438 0  0  1;
#X connect 439 0 442 0;
#X connect 442 0 443 0;
#X connect 443 0 441 1;
#X connect 440 0 441 0;
#X connect 441 0 444 0;
#X connect 444 0  0  0;
#X connect 444 0  0  1;
#X connect 445 0 448 0;
#X connect 448 0 449 0;
#X connect 449 0 447 1;
#X connect 446 0 447 0;
#X connect 447 0 450 0;
#X connect 450 0  0  0;
#X connect 450 0  0  1;
#X connect 451 0 454 0;
#X connect 454 0 455 0;
#X connect 455 0 453 1;
#X connect 452 0 453 0;
#X connect 453 0 456 0;
#X connect 456 0  0  0;
#X connect 456 0  0  1;
#X connect 457 0 460 0;
#X connect 460 0 461 0;
#X connect 461 0 459 1;
#X connect 458 0 459 0;
#X connect 459 0 462 0;
#X connect 462 0  0  0;
#X connect 462 0  0  1;
#X connect 463 0 466 0;
#X connect 466 0 467 0;
#X connect 467 0 465 1;
#X connect 464 0 465 0;
#X connect 465 0 468 0;
#X connect 468 0  0  0;
#X connect 468 0  0  1;
#X connect 469 0 472 0;
#X connect 472 0 473 0;
#X connect 473 0 471 1;
#X connect 470 0 471 0;
#X connect 471 0 474 0;
#X connect 474 0  0  0;
#X connect 474 0  0  1;
#X connect 475 0 478 0;
#X connect 478 0 479 0;
#X connect 479 0 477 1;
#X connect 476 0 477 0;
#X connect 477 0 480 0;
#X connect 480 0  0  0;
#X connect 480 0  0  1;
#X connect 481 0 484 0;
#X connect 484 0 485 0;
#X connect 485 0 483 1;
#X connect 482 0 483 0;
#X connect 483 0 486 0;
#X connect 486 0  0  0;
#X connect 486 0  0  1;
#X connect 487 0 490 0;
#X connect 490 0 491 0;
#X connect 491 0 489 1;
#X connect 488 0 489 0;
#X connect 489 0 492 0;
#X connect 492 0  0  0;
#X connect 492 0  0  1;
#X connect 493 0 496 0;
#X connect 496 0 497 0;
#X connect 497 0 495 1;
#X connect 494 0 495 0;
#X connect 495 0 498 0;
#X connect 498 0  0  0;
#X connect 498 0  0  1;
#X connect 499 0 502 0;
#X connect 502 0 503 0;
#X connect 503 0 501 1;
#X connect 500 0 501 0;
#X connect 501 0 504 0;
#X connect 504 0  0  0;
#X connect 504 0  0  1;
#X connect 505 0 508 0;
#X connect 508 0 509 0;
#X connect 509 0 507 1;
#X connect 506 0 507 0;
#X connect 507 0 510 0;
#X connect 510 0  0  0;
#X connect 510 0  0  1;
#X connect 511 0 514 0;
#X connect 514 0 515 0;
#X connect 515 0 513 1;
#X connect 512 0 513 0;
#X connect 513 0 516 0;
#X connect 516 0  0  0;
#X connect 516 0  0  1;
#X connect 517 0 520 0;
#X connect 520 0 521 0;
#X connect 521 0 519 1;
#X connect 518 0 519 0;
#X connect 519 0 522 0;
#X connect 522 0  0  0;
#X connect 522 0  0  1;
#X connect 523 0 526 0;
#X connect 526 0 527 0;
#X connect 527 0 525 1;
#X connect 524 0 525 0;
#X connect 525 0 528 0;
#X connect 528 0  0  0;
#X connect 528 0  0  1;
#X connect 529 0 532 0;
#X connect 532 0 533 0;
#X connect 533 0 531 1;
#X connect 530 0 531 0;
#X connect 531 0 534 0;
#X connect 534 0  0  0;
#X connect 534 0  0  1;
#X connect 535 0 538 0;
#X connect 538 0 539 0;
#X connect 539 0 537 1;
#X connect 536 0 537 0;
#X connect 537 0 540 0;
#X connect 540 0  0  0;
#X connect 540 0  0  1;
#X connect 541 0 544 0;
#X connect 544 0 545 0;
#X connect 545 0 543 1;
#X connect 542 0 543 0;
#X connect 543 0 546 0;
#X connect 546 0  0  0;
#X connect 546 0  0  1;
#X connect 547 0 550 0;
#X connect 550 0 551 0;
#X connect 551 0 549 1;
#X connect 548 0 549 0;
#X connect 549 0 552 0;
#X connect 552 0  0  0;
#X connect 552 0  0  1;
#X connect 553 0 556 0;
#X connect 556 0 557 0;
#X connect 557 0 555 1;
#X connect 554 0 555 0;
#X connect 555 0 558 0;
#X connect 558 0  0  0;
#X connect 558 0  0  1;
#X connect 559 0 562 0;
#X connect 562 0 563 0;
#X connect 563 0 561 1;
#X connect 560 0 561 0;
#X connect 561 0 564 0;
#X connect 564 0  0  0;
#X connect 564 0  0  1;
#X connect 565 0 568 0;
#X connect 568 0 569 0;
#X connect 569 0 567 1;
#X connect 566 0 567 0;
#X connect 567 0 570 0;
#X connect 570 0  0  0;
#X connect 570 0  0  1;
#X connect 571 0 574 0;
#X connect 574 0 575 0;
#X connect 575 0 573 1;
#X connect 572 0 573 0;
#X connect 573 0 576 0;
#X connect 576 0  0  0;
#X connect 576 0  0  1;
#X connect 577 0 580 0;
#X connect 580 0 581 0;
#X connect 581 0 579 1;
#X connect 578 0 579 0;
#X connect 579 0 582 0;
#X connect 582 0  0  0;
#X connect 582 0  0  1;
#X connect 583 0 586 0;
#X connect 586 0 587 0;
#X connect 587 0 585 1;
#X connect 584 0 585 0;
#X connect 585 0 588 0;
#X connect 588 0  0  0;
#X connect 588 0  0  1;
#X connect 589 0 592 0;
#X connect 592 0 593 0;
#X connect 593 0 591 1;
#X connect 590 0 591 0;
#X connect 591 0 594 0;
#X connect 594 0  0  0;
#X connect 594 0  0  1;
#X connect 595 0 598 0;
#X connect 598 0 599 0;
#X connect 599 0 597 1;
#X connect 596 0 597 0;
#X connect 597 0 600 0;
#X connect 600 0  0  0;
#X connect 600 0  0  1;
#X connect 601 0 604 0;
#X connect 604 0 605 0;
#X connect 605 0 603 1;
#X connect 602 0 603 0;
#X connect 603 0 606 0;
#X connect 606 0  0  0;
#X connect 606 0  0  1;
#X connect 607 0 610 0;
#X connect 610 0 611 0;
#X connect 611 0 609 1;
#X connect 608 0 609 0;
#X connect 609 0 612 0;
#X connect 612 0  0  0;
#X connect 612 0  0  1;
#X connect 613 0 616 0;
#X connect 616 0 617 0;
#X connect 617 0 615 1;
#X connect 614 0 615 0;
#X connect 615 0 618 0;
#X connect 618 0  0  0;
#X connect 618 0  0  1;
#X connect 619 0 622 0;
#X connect 622 0 623 0;
#X connect 623 0 621 1;
#X connect 620 0 621 0;
#X connect 621 0 624 0;
#X connect 624 0  0  0;
#X connect 624 0  0  1;
#X connect 625 0 628 0;
#X connect 628 0 629 0;
#X connect 629 0 627 1;
#X connect 626 0 627 0;
#X connect 627 0 630 0;
#X connect 630 0  0  0;
#X connect 630 0  0  1;
#X connect 631 0 634 0;
#X connect 634 0 635 0;
#X connect 635 0 633 1;
#X connect 632 0 633 0;
#X connect 633 0 636 0;
#X connect 636 0  0  0;
#X connect 636 0  0  1;
#X connect 637 0 640 0;
#X connect 640 0 641 0;
#X connect 641 0 639 1;
#X connect 638 0 639 0;
#X connect 639 0 642 0;
#X connect 642 0  0  0;
#X connect 642 0  0  1;
#X connect 643 0 646 0;
#X connect 646 0 647 0;
#X connect 647 0 645 1;
#X connect 644 0 645 0;
#X connect 645 0 648 0;
#X connect 648 0  0  0;
#X connect 648 0  0  1;
#X connect 649 0 652 0;
#X connect 652 0 653 0;
#X connect 653 0 651 1;
#X connect 650 0 651 0;
#X connect 651 0 654 0;
#X connect 654 0  0  0;
#X connect 654 0  0  1;
#X connect 655 0 658 0;
#X connect 658 0 659 0;
#X connect 659 0 657 1;
#X connect 656 0 657 0;
#X connect 657 0 660 0;
#X connect 660 0  0  0;
#X connect 660 0  0  1;
#X connect 661 0 664 0;
#X connect 664 0 665 0;
#X connect 665 0 663 1;
#X connect 662 0 663 0;
#X connect 663 0 666 0;
#X connect 666 0  0  0;
#X connect 666 0  0  1;
#X connect 667 0 670 0;
#X connect 670 0 671 0;
#X connect 671 0 669 1;
#X connect 668 0 669 0;
#X connect 669 0 672 0;
#X connect 672 0  0  0;
#X connect 672 0  0  1;
#X connect 673 0 676 0;
#X connect 676 0 677 0;
#X connect 677 0 675 1;
#X connect 674 0 675 0;
#X connect 675 0 678 0;
#X connect 678 0  0  0;
#X connect 678 0  0  1;
#X connect 679 0 682 0;
#X connect 682 0 683 0;
#X connect 683 0 681 1;
#X connect 680 0 681 0;
#X connect 681 0 684 0;
#X connect 684 0  0  0;
#X connect 684 0  0  1;
#X connect 685 0 688 0;
#X connect 688 0 689 0;
#X connect 689 0 687 1;
#X connect 686 0 687 0;
#X connect 687 0 690 0;
#X connect 690 0  0  0;
#X connect 690 0  0  1;
#X connect 691 0 694 0;
#X connect 694 0 695 0;
#X connect 695 0 693 1;
#X connect 692 0 693 0;
#X connect 693 0 696 0;
#X connect 696 0  0  0;
#X connect 696 0  0  1;
#X connect 697 0 700 0;
#X connect 700 0 701 0;
#X connect 701 0 699 1;
#X connect 698 0 699 0;
#X connect 699 0 702 0;
#X connect 702 0  0  0;
#X connect 702 0  0  1;
#X connect 703 0 706 0;
#X connect 706 0 707 0;
#X connect 707 0 705 1;
#X connect 704 0 705 0;
#X connect 705 0 708 0;
#X connect 708 0  0  0;
#X connect 708 0  0  1;
#X connect 709 0 712 0;
#X connect 712 0 713 0;
#X connect 713 0 711 1;
#X connect 710 0 711 0;
#X connect 711 0 714 0;
#X connect 714 0  0  0;
#X connect 714 0  0  1;
#X connect 715 0 718 0;
#X connect 718 0 719 0;
#X connect 719 0 717 1;
#X connect 716 0 717 0;
#X connect 717 0 720 0;
#X connect 720 0  0  0;
#X connect 720 0  0  1;
#X connect 721 0 724 0;
#X connect 724 0 725 0;
#X connect 725 0 723 1;
#X connect 722 0 723 0;
#X connect 723 0 726 0;
#X connect 726 0  0  0;
#X connect 726 0  0  1;
#X connect 727 0 730 0;
#X connect 730 0 731 0;
#X connect 731 0 729 1;
#X connect 728 0 729 0;
#X connect 729 0 732 0;
#X connect 732 0  0  0;
#X connect 732 0  0  1;
#X connect 733 0 736 0;
#X connect 736 0 737 0;
#X connect 737 0 735 1;
#X connect 734 0 735 0;
#X connect 735 0 738 0;
#X connect 738 0  0  0;
#X connect 738 0  0  1;
#X connect 739 0 742 0;
#X connect 742 0 743 0;
#X connect 743 0 741 1;
#X connect 740 0 741 0;
#X connect 741 0 744 0;
#X connect 744 0  0  0;
#X connect 744 0  0  1;
#X connect 745 0 748 0;
#X connect 748 0 749 0;
#X connect 749 0 747 1;
#X connect 746 0 747 0;
#X connect 747 0 750 0;
#X connect 750 0  0  0;
#X connect 750 0  0  1;
#X connect 751 0 754 0;
#X connect 754 0 755 0;
#X connect 755 0 753 1;
#X connect 752 0 753 0;
#X connect 753 0 756 0;
#X connect 756 0  0  0;
#X connect 756 0  0  1;
#X connect 757 0 760 0;
#X connect 760 0 761 0;
#X connect 761 0 759 1;
#X connect 758 0 759 0;
#X connect 759 0 762 0;
#X connect 762 0  0  0;
#X connect 762 0  0  1;
#X connect 763 0 766 0;
#X connect 766 0 767 0;
#X connect 767 0 765 1;
#X connect 764 0 765 0;
#X connect 765 0 768 0;
#X connect 768 0  0  0;
#X connect 768 0  0  1;
#X connect 769 0 772 0;
#X connect 772 0 773 0;
#X connect 773 0 771 1;
#X connect 770 0 771 0;
#X connect 771 0 774 0;
#X connect 774 0  0  0;
#X connect 774 0  0  1;
#X connect 775 0 778 0;
#X connect 778 0 779 0;
#X connect 779 0 777 1;
#X connect 776 0 777 0;
#X connect 777 0 780 0;
#X connect 780 0  0  0;
#X connect 780 0  0  1;
#X connect 781 0 784 0;
#X connect 784 0 785 0;
#X connect 785 0 783 1;
#X connect 782 0 783 0;
#X connect 783 0 786 0;
#X connect 786 0  0  0;
#X connect 786 0  0  1;
#X connect 787 0 790 0;
#X connect 790 0 791 0;
#X connect 791 0 789 1;
#X connect 788 0 789 0;
#X connect 789 0 792 0;
#X connect 792 0  0  0;
#X connect 792 0  0  1;
#X connect 793 0 796 0;
#X connect 796 0 797 0;
#X connect 797 0 795 1;
#X connect 794 0 795 0;
#X connect 795 0 798 0;
#X connect 798 0  0  0;
#X connect 798 0  0  1;
#X connect 799 0 802 0;
#X connect 802 0 803 0;
#X connect 803 0 801 1;
#X connect 800 0 801 0;
#X connect 801 0 804 0;
#X connect 804 0  0  0;
#X connect 804 0  0  1;
#X connect 805 0 808 0;
#X connect 808 0 809 0;
#X connect 809 0 807 1;
#X connect 806 0 807 0;
#X connect 807 0 810 0;
#X connect 810 0  0  0;
#X connect 810 0  0  1;
#X connect 811 0 814 0;
#X connect 814 0 815 0;
#X connect 815 0 813 1;
#X connect 812 0 813 0;
#X connect 813 0 816 0;
#X connect 816 0  0  0;
#X connect 816 0  0  1;
#X connect 817 0 820 0;
#X connect 820 0 821 0;
#X connect 821 0 819 1;
#X connect 818 0 819 0;
#X connect 819 0 822 0;
#X connect 822 0  0  0;
#X connect 822 0  0  1;
#X connect 823 0 826 0;
#X connect 826 0 827 0;
#X connect 827 0 825 1;
#X connect 824 0 825 0;
#X connect 825 0 828 0;
#X connect 828 0  0  0;
#X connect 828 0  0  1;
#X connect 829 0 832 0;
#X connect 832 0 833 0;
#X connect 833 0 831 1;
#X connect 830 0 831 0;
#X connect 831 0 834 0;
#X connect 834 0  0  0;
#X connect 834 0  0  1;
#X connect 835 0 838 0;
#X connect 838 0 839 0;
#X connect 839 0 837 1;
#X connect 836 0 837 0;
#X connect 837 0 840 0;
#X connect 840 0  0  0;
#X connect 840 0  0  1;
#X connect 841 0 844 0;
#X connect 844 0 845 0;
#X connect 845 0 843 1;
#X connect 842 0 843 0;
#X connect 843 0 846 0;
#X connect 846 0  0  0;
#X connect 846 0  0  1;
#X connect 847 0 850 0;
#X connect 850 0 851 0;
#X connect 851 0 849 1;
#X connect 848 0 849 0;
#X connect 849 0 852 0;
#X connect 852 0  0  0;
#X connect 852 0  0  1;
#X connect 853 0 856 0;
#X connect 856 0 857 0;
#X connect 857 0 855 1;
#X connect 854 0 855 0;
#X connect 855 0 858 0;
#X connect 858 0  0  0;
#X connect 858 0  0  1;
#X connect 859 0 862 0;
#X connect 862 0 863 0;
#X connect 863 0 861 1;
#X connect 860 0 861 0;
#X connect 861 0 864 0;
#X connect 864 0  0  0;
#X connect 864 0  0  1;
#X connect 865 0 868 0;
#X connect 868 0 869 0;
#X connect 869 0 867 1;
#X connect 866 0 867 0;
#X connect 867 0 870 0;
#X connect 870 0  0  0;
#X connect 870 0  0  1;
#X connect 871 0 874 0;
#X connect 874 0 875 0;
#X connect 875 0 873 1;
#X connect 872 0 873 0;
#X connect 873 0 876 0;
#X connect 876 0  0  0;
#X connect 876 0  0  1;
#X connect 877 0 880 0;
#X connect 880 0 881 0;
#X connect 881 0 879 1;
#X connect 878 0 879 0;
#X connect 879 0 882 0;
#X connect 882 0  0  0;
#X connect 882 0  0  1;
#X connect 883 0 886 0;
#X connect 886 0 887 0;
#X connect 887 0 885 1;
#X connect 884 0 885 0;
#X connect 885 0 888 0;
#X connect 888 0  0  0;
#X connect 888 0  0  1;
#X connect 889 0 892 0;
#X connect 892 0 893 0;
#X connect 893 0 891 1;
#X connect 890 0 891 0;
#X connect 891 0 894 0;
#X connect 894 0  0  0;
#X connect 894 0  0  1;
#X connect 895 0 898 0;
#X connect 898 0 899 0;
#X connect 899 0 897 1;
#X connect 896 0 897 0;
#X connect 897 0 900 0;
#X connect 900 0  0  0;
#X connect 900 0  0  1;
#X connect 901 0 904 0;
#X connect 904 0 905 0;
#X connect 905 0 903 1;
#X connect 902 0 903 0;
#X connect 903 0 906 0;
#X connect 906 0  0  0;
#X connect 906 0  0  1;
#X connect 907 0 910 0;
#X connect 910 0 911 0;
#X connect 911 0 909 1;
#X connect 908 0 909 0;
#X connect 909 0 912 0;
#X connect 912 0  0  0;
#X connect 912 0  0  1;
#X connect 913 0 916 0;
#X connect 916 0 917 0;
#X connect 917 0 915 1;
#X connect 914 0 915 0;
#X connect 915 0 918 0;
#X connect 918 0  0  0;
#X connect 918 0  0  1;
#X connect 919 0 922 0;
#X connect 922 0 923 0;
#X connect 923 0 921 1;
#X connect 920 0 921 0;
#X connect 921 0 924 0;
#X connect 924 0  0  0;
#X connect 924 0  0  1;
#X connect 925 0 928 0;
#X connect 928 0 929 0;
#X connect 929 0 927 1;
#X connect 926 0 927 0;
#X connect 927 0 930 0;
#X connect 930 0  0  0;
#X connect 930 0  0  1;
#X connect 931 0 934 0;
#X connect 934 0 935 0;
#X connect 935 0 933 1;
#X connect 932 0 933 0;
#X connect 933 0 936 0;
#X connect 936 0  0  0;
#X connect 936 0  0  1;
#X connect 937 0 940 0;
#X connect 940 0 941 0;
#X connect 941 0 939 1;
#X connect 938 0 939 0;
#X connect 939 0 942 0;
#X connect 942 0  0  0;
#X connect 942 0  0  1;
#X connect 943 0 946 0;
#X connect 946 0 947 0;
#X connect 947 0 945 1;
#X connect 944 0 945 0;
#X connect 945 0 948 0;
#X connect 948 0  0  0;
#X connect 948 0  0  1;
#X connect 949 0 952 0;
#X connect 952 0 953 0;
#X connect 953 0 951 1;
#X connect 950 0 951 0;
#X connect 951 0 954 0;
#X connect 954 0  0  0;
#X connect 954 0  0  1;
#X connect 955 0 958 0;
#X connect 958 0 959 0;
#X connect 959 0 957 1;
#X connect 956 0 957 0;
#X connect 957 0 960 0;
#X connect 960 0  0  0;
#X connect 960 0  0  1;
#X connect 961 0 964 0;
#X connect 964 0 965 0;
#X connect 965 0 963 1;
#X connect 962 0 963 0;
#X connect 963 0 966 0;
#X connect 966 0  0  0;
#X connect 966 0  0  1;
#X connect 967 0 970 0;
#X connect 970 0 971 0;
#X connect 971 0 969 1;
#X connect 968 0 969 0;
#X connect 969 0 972 0;
#X connect 972 0  0  0;
#X connect 972 0  0  1;
#X connect 973 0 976 0;
#X connect 976 0 977 0;
#X connect 977 0 975 1;
#X connect 974 0 975 0;
#X connect 975 0 978 0;
#X connect 978 0  0  0;
#X connect 978 0  0  1;
#X connect 979 0 982 0;
#X connect 982 0 983 0;
#X connect 983 0 981 1;
#X connect 980 0 981 0;
#X connect 981 0 984 0;
#X connect 984 0  0  0;
#X connect 984 0  0  1;
#X connect 985 0 988 0;
#X connect 988 0 989 0;
#X connect 989 0 987 1;
#X connect 986 0 987 0;
#X connect 987 0 990 0;
#X connect 990 0  0  0;
#X connect 990 0  0  1;
#X connect 991 0 994 0;
#X connect 994 0 995 0;
#X connect 995 0 993 1;
#X connect 992 0 993 0;
#X connect 993 0 996 0;
#X connect 996 0  0  0;
#X connect 996 0  0  1;
#X connect 997 0 1000 0;
#X connect 1000 0 1001 0;
#X connect 1001 0 999 1;
#X connect 998 0 999 0;
#X connect 999 0 1002 0;
#X connect 1002 0  0  0;
#X connect 1002 0  0  1;
#X connect 1003 0 1006 0;
#X connect 1006 0 1007 0;
#X connect 1007 0 1005 1;
#X connect 1004 0 1005 0;
#X connect 1005 0 1008 0;
#X connect 1008 0  0  0;
#X connect 1008 0  0  1;
#X connect 1009 0 1012 0;
#X connect 1012 0 1013 0;
#X connect 1013 0 1011 1;
#X connect 1010 0 1011 0;
#X connect 1011 0 1014 0;
#X connect 1014 0  0  0;
#X connect 1014 0  0  1;
#X connect 1015 0 1018 0;
#X connect 1018 0 1019 0;
#X connect 1019 0 1017 1;
#X connect 1016 0 1017 0;
#X connect 1017 0 1020 0;
#X connect 1020 0  0  0;
#X connect 1020 0  0  1;
#X connect 1021 0 1024 0;
#X connect 1024 0 1025 0;
#X connect 1025 0 1023 1;
#X connect 1022 0 1023 0;
#X connect 1023 0 1026 0;
#X connect 1026 0  0  0;
#X connect 1026 0  0  1;
#X connect 1027 0 1030 0;
#X connect 1030 0 1031 0;
#X connect 1031 0 1029 1;
#X connect 1028 0 1029 0;
#X connect 1029 0 1032 0;
#X connect 1032 0  0  0;
#X connect 1032 0  0  1;
#X connect 1033 0 1036 0;
#X connect 1036 0 1037 0;
#X connect 1037 0 1035 1;
#X connect 1034 0 1035 0;
#X connect 1035 0 1038 0;
#X connect 1038 0  0  0;
#X connect 1038 0  0  1;
#X connect 1039 0 1042 0;
#X connect 1042 0 1043 0;
#X connect 1043 0 1041 1;
#X connect 1040 0 1041 0;
#X connect 1041 0 1044 0;
#X connect 1044 0  0  0;
#X connect 1044 0  0  1;
#X connect 1045 0 1048 0;
#X connect 1048 0 1049 0;
#X connect 1049 0 1047 1;
#X connect 1046 0 1047 0;
#X connect 1047 0 1050 0;
#X connect 1050 0  0  0;
#X connect 1050 0  0  1;
#X connect 1051 0 1054 0;
#X connect 1054 0 1055 0;
#X connect 1055 0 1053 1;
#X connect 1052 0 1053 0;
#X connect 1053 0 1056 0;
#X connect 1056 0  0  0;
#X connect 1056 0  0  1;
#X connect 1057 0 1060 0;
#X connect 1060 0 1061 0;
#X connect 1061 0 1059 1;
#X connect 1058 0 1059 0;
#X connect 1059 0 1062 0;
#X connect 1062 0  0  0;
#X connect 1062 0  0  1;
#X connect 1063 0 1066 0;
#X connect 1066 0 1067 0;
#X connect 1067 0 1065 1;
#X connect 1064 0 1065 0;
#X connect 1065 0 1068 0;
#X connect 1068 0  0  0;
#X connect 1068 0  0  1;
#X connect 1069 0 1072 0;
#X connect 1072 0 1073 0;
#X connect 1073 0 1071 1;
#X connect 1070 0 1071 0;
#X connect 1071 0 1074 0;
#X connect 1074 0  0  0;
#X connect 1074 0  0  1;
#X connect 1075 0 1078 0;
#X connect 1078 0 1079 0;
#X connect 1079 0 1077 1;
#X connect 1076 0 1077 0;
#X connect 1077 0 1080 0;
#X connect 1080 0  0  0;
#X connect 1080 0  0  1;
#X connect 1081 0 1084 0;
#X connect 1084 0 1085 0;
#X connect 1085 0 1083 1;
#X connect 1082 0 1083 0;
#X connect 1083 0 1086 0;
#X connect 1086 0  0  0;
#X connect 1086 0  0  1;
#X connect 1087 0 1090 0;
#X connect 1090 0 1091 0;
#X connect 1091 0 1089 1;
#X connect 1088 0 1089 0;
#X connect 1089 0 1092 0;
#X connect 1092 0  0  0;
#X connect 1092 0  0  1;
#X connect 1093 0 1096 0;
#X connect 1096 0 1097 0;
#X connect 1097 0 1095 1;
#X connect 1094 0 1095 0;
#X connect 1095 0 1098 0;
#X connect 1098 0  0  0;
#X connect 1098 0  0  1;
#X connect 1099 0 1102 0;
#X connect 1102 0 1103 0;
#X connect 1103 0 1101 1;
#X connect 1100 0 1101 0;
#X connect 1101 0 1104 0;
#X connect 1104 0  0  0;
#X connect 1104 0  0  1;
#X connect 1105 0 1108 0;
#X connect 1108 0 1109 0;
#X connect 1109 0 1107 1;
#X connect 1106 0 1107 0;
#X connect 1107 0 1110 0;
#X connect 1110 0  0  0;
#X connect 1110 0  0  1;
#X connect 1111 0 1114 0;
#X connect 1114 0 1115 0;
#X connect 1115 0 1113 1;
#X connect 1112 0 1113 0;
#X connect 1113 0 1116 0;
#X connect 1116 0  0  0;
#X connect 1116 0  0  1;
#X connect 1117 0 1120 0;
#X connect 1120 0 1121 0;
#X connect 1121 0 1119 1;
#X connect 1118 0 1119 0;
#X connect 1119 0 1122 0;
#X connect 1122 0  0  0;
#X connect 1122 0  0  1;
#X connect 1123 0 1126 0;
#X connect 1126 0 1127 0;
#X connect 1127 0 1125 1;
#X connect 1124 0 1125 0;
#X connect 1125 0 1128 0;
#X connect 1128 0  0  0;
#X connect 1128 0  0  1;
#X connect 1129 0 1132 0;
#X connect 1132 0 1133 0;
#X connect 1133 0 1131 1;
#X connect 1130 0 1131 0;
#X connect 1131 0 1134 0;
#X connect 1134 0  0  0;
#X connect 1134 0  0  1;
#X connect 1135 0 1138 0;
#X connect 1138 0 1139 0;
#X connect 1139 0 1137 1;
#X connect 1136 0 1137 0;
#X connect 1137 0 1140 0;
#X connect 1140 0  0  0;
#X connect 1140 0  0  1;
#X connect 1141 0 1144 0;
#X connect 1144 0 1145 0;
#X connect 1145 0 1143 1;
#X connect 1142 0 1143 0;
#X connect 1143 0 1146 0;
#X connect 1146 0  0  0;
#X connect 1146 0  0  1;
#X connect 1147 0 1150 0;
#X connect 1150 0 1151 0;
#X connect 1151 0 1149 1;
#X connect 1148 0 1149 0;
#X connect 1149 0 1152 0;
#X connect 1152 0  0  0;
#X connect 1152 0  0  1;
#X connect 1153 0 1156 0;
#X connect 1156 0 1157 0;
#X connect 1157 0 1155 1;
#X connect 1154 0 1155 0;
#X connect 1155 0 1158 0;
#X connect 1158 0  0  0;
#X connect 1158 0  0  1;
#X connect 1159 0 1162 0;
#X connect 1162 0 1163 0;
#X connect 1163 0 1161 1;
#X connect 1160 0 1161 0;
#X connect 1161 0 1164 0;
#X connect 1164 0  0  0;
#X connect 1164 0  0  1;
#X connect 1165 0 1168 0;
#X connect 1168 0 1169 0;
#X connect 1169 0 1167 1;
#X connect 1166 0 1167 0;
#X connect 1167 0 1170 0;
#X connect 1170 0  0  0;
#X connect 1170 0  0  1;
#X connect 1171 0 1174 0;
#X connect 1174 0 1175 0;
#X connect 1175 0 1173 1;
#X connect 1172 0 1173 0;
#X connect 1173 0 1176 0;
#X connect 1176 0  0  0;
#X connect 1176 0  0  1;
#X connect 1177 0 1180 0;
#X connect 1180 0 1181 0;
#X connect 1181 0 1179 1;
#X connect 1178 0 1179 0;
#X connect 1179 0 1182 0;
#X connect 1182 0  0  0;
#X connect 1182 0  0  1;
#X connect 1183 0 1186 0;
#X connect 1186 0 1187 0;
#X connect 1187 0 1185 1;
#X connect 1184 0 1185 0;
#X connect 1185 0 1188 0;
#X connect 1188 0  0  0;
#X connect 1188 0  0  1;
#X connect 1189 0 1192 0;
#X connect 1192 0 1193 0;
#X connect 1193 0 1191 1;
#X connect 1190 0 1191 0;
#X connect 1191 0 1194 0;
#X connect 1194 0  0  0;
#X connect 1194 0  0  1;
#X connect 1195 0 1198 0;
#X connect 1198 0 1199 0;
#X connect 1199 0 1197 1;
#X connect 1196 0 1197 0;
#X connect 1197 0 1200 0;
#X connect 1200 0  0  0;
#X connect 1200 0  0  1;
#X connect 1201 0 1204 0;
#X connect 1204 0 1205 0;
#X connect 1205 0 1203 1;
#X connect 1202 0 1203 0;
#X connect 1203 0 1206 0;
#X connect 1206 0  0  0;
#X connect 1206 0  0  1;
#X connect 1207 0 1210 0;
#X connect 1210 0 1211 0;
#X connect 1211 0 1209 1;
#X connect 1208 0 1209 0;
#X connect 1209 0 1212 0;
#X connect 1212 0  0  0;
#X connect 1212 0  0  1;
#X connect 1213 0 1216 0;
#X connect 1216 0 1217 0;
#X connect 1217 0 1215 1;
#X connect 1214 0 1215 0;
#X connect 1215 0 1218 0;
#X connect 1218 0  0  0;
#X connect 1218 0  0  1;
#X connect 1219 0 1222 0;
#X connect 1222 0 1223 0;
#X connect 1223 0 1221 1;
#X connect 1220 0 1221 0;
#X connect 1221 0 1224 0;
#X connect 1224 0  0  0;
#X connect 1224 0  0  1;
#X connect 1225 0 1228 0;
#X connect 1228 0 1229 0;
#X connect 1229 0 1227 1;
#X connect 1226 0 1227 0;
#X connect 1227 0 1230 0;
#X connect 1230 0  0  0;
#X connect 1230 0  0  1;
#X connect 1231 0 1234 0;
#X connect 1234 0 1235 0;
#X connect 1235 0 1233 1;
#X connect 1232 0 1233 0;
#X connect 1233 0 1236 0;
#X connect 1236 0  0  0;
#X connect 1236 0  0  1;
#X connect 1237 0 1240 0;
#X connect 1240 0 1241 0;
#X connect 1241 0 1239 1;
#X connect 1238 0 1239 0;
#X connect 1239 0 1242 0;
#X connect 1242 0  0  0;
#X connect 1242 0  0  1;
#X connect 1243 0 1246 0;
#X connect 1246 0 1247 0;
#X connect 1247 0 1245 1;
#X connect 1244 0 1245 0;
#X connect 1245 0 1248 0;
#X connect 1248 0  0  0;
#X connect 1248 0  0  1;
#X connect 1249 0 1252 0;
#X connect 1252 0 1253 0;
#X connect 1253 0 1251 1;
#X connect 1250 0 1251 0;
#X connect 1251 0 1254 0;
#X connect 1254 0  0  0;
#X connect 1254 0  0  1;
#X connect 1255 0 1258 0;
#X connect 1258 0 1259 0;
#X connect 1259 0 1257 1;
#X connect 1256 0 1257 0;
#X connect 1257 0 1260 0;
#X connect 1260 0  0  0;
#X connect 1260 0  0  1;
#X connect 1261 0 1264 0;
#X connect 1264 0 1265 0;
#X connect 1265 0 1263 1;
#X connect 1262 0 1263 0;
#X connect 1263 0 1266 0;
#X connect 1266 0  0  0;
#X connect 1266 0  0  1;
#X connect 1267 0 1270 0;
#X connect 1270 0 1271 0;
#X connect 1271 0 1269 1;
#X connect 1268 0 1269 0;
#X connect 1269 0 1272 0;
#X connect 1272 0  0  0;
#X connect 1272 0  0  1;
#X connect 1273 0 1276 0;
#X connect 1276 0 1277 0;
#X connect 1277 0 1275 1;
#X connect 1274 0 1275 0;
#X connect 1275 0 1278 0;
#X connect 1278 0  0  0;
#X connect 1278 0  0  1;
#X connect 1279 0 1282 0;
#X connect 1282 0 1283 0;
#X connect 1283 0 1281 1;
#X connect 1280 0 1281 0;
#X connect 1281 0 1284 0;
#X connect 1284 0  0  0;
#X connect 1284 0  0  1;
#X connect 1285 0 1288 0;
#X connect 1288 0 1289 0;
#X connect 1289 0 1287 1;
#X connect 1286 0 1287 0;
#X connect 1287 0 1290 0;
#X connect 1290 0  0  0;
#X connect 1290 0  0  1;
#X connect 1291 0 1294 0;
#X connect 1294 0 1295 0;
#X connect 1295 0 1293 1;
#X connect 1292 0 1293 0;
#X connect 1293 0 1296 0;
#X connect 1296 0  0  0;
#X connect 1296 0  0  1;
#X connect 1297 0 1300 0;
#X connect 1300 0 1301 0;
#X connect 1301 0 1299 1;
#X connect 1298 0 1299 0;
#X connect 1299 0 1302 0;
#X connect 1302 0  0  0;
#X connect 1302 0  0  1;
#X connect 1303 0 1306 0;
#X connect 1306 0 1307 0;
#X connect 1307 0 1305 1;
#X connect 1304 0 1305 0;
#X connect 1305 0 1308 0;
#X connect 1308 0  0  0;
#X connect 1308 0  0  1;
#X connect 1309 0 1312 0;
#X connect 1312 0 1313 0;
#X connect 1313 0 1311 1;
#X connect 1310 0 1311 0;
#X connect 1311 0 1314 0;
#X connect 1314 0  0  0;
#X connect 1314 0  0  1;
#X connect 1315 0 1318 0;
#X connect 1318 0 1319 0;
#X connect 1319 0 1317 1;
#X connect 1316 0 1317 0;
#X connect 1317 0 1320 0;
#X connect 1320 0  0  0;
#X connect 1320 0  0  1;
#X connect 1321 0 1324 0;
#X connect 1324 0 1325 0;
#X connect 1325 0 1323 1;
#X connect 1322 0 1323 0;
#X connect 1323 0 1326 0;
#X connect 1326 0  0  0;
#X connect 1326 0  0  1;
#X connect 1327 0 1330 0;
#X connect 1330 0 1331 0;
#X connect 1331 0 1329 1;
#X connect 1328 0 1329 0;
#X connect 1329 0 1332 0;
#X connect 1332 0  0  0;
#X connect 1332 0  0  1;
#X connect 1333 0 1336 0;
#X connect 1336 0 1337 0;
#X connect 1337 0 1335 1;
#X connect 1334 0 1335 0;
#X connect 1335 0 1338 0;
#X connect 1338 0  0  0;
#X connect 1338 0  0  1;
#X connect 1339 0 1342 0;
#X connect 1342 0 1343 0;
#X connect 1343 0 1341 1;
#X connect 1340 0 1341 0;
#X connect 1341 0 1344 0;
#X connect 1344 0  0  0;
#X connect 1344 0  0  1;
#X connect 1345 0 1348 0;
#X connect 1348 0 1349 0;
#X connect 1349 0 1347 1;
#X connect 1346 0 1347 0;
#X connect 1347 0 1350 0;
#X connect 1350 0  0  0;
#X connect 1350 0  0  1;
#X connect 1351 0 1354 0;
#X connect 1354 0 1355 0;
#X connect 1355 0 1353 1;
#X connect 1352 0 1353 0;
#X connect 1353 0 1356 0;
#X connect 1356 0  0  0;
#X connect 1356 0  0  1;
#X connect 1357 0 1360 0;
#X connect 1360 0 1361 0;
#X connect 1361 0 1359 1;
#X connect 1358 0 1359 0;
#X connect 1359 0 1362 0;
#X connect 1362 0  0  0;
#X connect 1362 0  0  1;
#X connect 1363 0 1366 0;
#X connect 1366 0 1367 0;
#X connect 1367 0 1365 1;
#X connect 1364 0 1365 0;
#X connect 1365 0 1368 0;
#X connect 1368 0  0  0;
#X connect 1368 0  0  1;
#X connect 1369 0 1372 0;
#X connect 1372 0 1373 0;
#X connect 1373 0 1371 1;
#X connect 1370 0 1371 0;
#X connect 1371 0 1374 0;
#X connect 1374 0  0  0;
#X connect 1374 0  0  1;
#X connect 1375 0 1378 0;
#X connect 1378 0 1379 0;
#X connect 1379 0 1377 1;
#X connect 1376 0 1377 0;
#X connect 1377 0 1380 0;
#X connect 1380 0  0  0;
#X connect 1380 0  0  1;
#X connect 1381 0 1384 0;
#X connect 1384 0 1385 0;
#X connect 1385 0 1383 1;
#X connect 1382 0 1383 0;
#X connect 1383 0 1386 0;
#X connect 1386 0  0  0;
#X connect 1386 0  0  1;
#X connect 1387 0 1390 0;
#X connect 1390 0 1391 0;
#X connect 1391 0 1389 1;
#X connect 1388 0 1389 0;
#X connect 1389 0 1392 0;
#X connect 1392 0  0  0;
#X connect 1392 0  0  1;
#X connect 1393 0 1396 0;
#X connect 1396 0 1397 0;
#X connect 1397 0 1395 1;
#X connect 1394 0 1395 0;
#X connect 1395 0 1398 0;
#X connect 1398 0  0  0;
#X connect 1398 0  0  1;
#X connect 1399 0 1402 0;
#X connect 1402 0 1403 0;
#X connect 1403 0 1401 1;
#X connect 1400 0 1401 0;
#X connect 1401 0 1404 0;
#X connect 1404 0  0  0;
#X connect 1404 0  0  1;
#X connect 1405 0 1408 0;
#X connect 1408 0 1409 0;
#X connect 1409 0 1407 1;
#X connect 1406 0 1407 0;
#X connect 1407 0 1410 0;
#X connect 1410 0  0  0;
#X connect 1410 0  0  1;
#X connect 1411 0 1414 0;
#X connect 1414 0 1415 0;
#X connect 1415 0 1413 1;
#X connect 1412 0 1413 0;
#X connect 1413 0 1416 0;
#X connect 1416 0  0  0;
#X connect 1416 0  0  1;
#X connect 1417 0 1420 0;
#X connect 1420 0 1421 0;
#X connect 1421 0 1419 1;
#X connect 1418 0 1419 0;
#X connect 1419 0 1422 0;
#X connect 1422 0  0  0;
#X connect 1422 0  0  1;
#X connect 1423 0 1426 0;
#X connect 1426 0 1427 0;
#X connect 1427 0 1425 1;
#X connect 1424 0 1425 0;
#X connect 1425 0 1428 0;
#X connect 1428 0  0  0;
#X connect 1428 0  0  1;
#X connect 1429 0 1432 0;
#X connect 1432 0 1433 0;
#X connect 1433 0 1431 1;
#X connect 1430 0 1431 0;
#X connect 1431 0 1434 0;
#X connect 1434 0  0  0;
#X connect 1434 0  0  1;
#X connect 1435 0 1438 0;
#X connect 1438 0 1439 0;
#X connect 1439 0 1437 1;
#X connect 1436 0 1437 0;
#X connect 1437 0 1440 0;
#X connect 1440 0  0  0;
#X connect 1440 0  0  1;
