#N canvas 1000 70 762 624 10;
#X obj 78 116 dac~;
#X obj 121 -86 r unit0;
#X obj 23 -27 osc~ 17.32434;
#X obj 78 63 *~;
#X obj 100 100 sig~;
#X obj 200 200 lop~ 3;
#X obj 300 300 *~ 0.008333334;
#X obj 121 -86 r unit1;
#X obj 23 -27 osc~ 18.3545;
#X obj 78 63 *~;
#X obj 100 100 sig~;
#X obj 200 200 lop~ 3;
#X obj 300 300 *~ 0.008333334;
#X obj 121 -86 r unit2;
#X obj 23 -27 osc~ 19.445915;
#X obj 78 63 *~;
#X obj 100 100 sig~;
#X obj 200 200 lop~ 3;
#X obj 300 300 *~ 0.008333334;
#X obj 121 -86 r unit3;
#X obj 23 -27 osc~ 20.60223;
#X obj 78 63 *~;
#X obj 100 100 sig~;
#X obj 200 200 lop~ 3;
#X obj 300 300 *~ 0.008333334;
#X obj 121 -86 r unit4;
#X obj 23 -27 osc~ 21.827303;
#X obj 78 63 *~;
#X obj 100 100 sig~;
#X obj 200 200 lop~ 3;
#X obj 300 300 *~ 0.008333334;
#X obj 121 -86 r unit5;
#X obj 23 -27 osc~ 23.125223;
#X obj 78 63 *~;
#X obj 100 100 sig~;
#X obj 200 200 lop~ 3;
#X obj 300 300 *~ 0.008333334;
#X obj 121 -86 r unit6;
#X obj 23 -27 osc~ 24.500322;
#X obj 78 63 *~;
#X obj 100 100 sig~;
#X obj 200 200 lop~ 3;
#X obj 300 300 *~ 0.008333334;
#X obj 121 -86 r unit7;
#X obj 23 -27 osc~ 25.957188;
#X obj 78 63 *~;
#X obj 100 100 sig~;
#X obj 200 200 lop~ 3;
#X obj 300 300 *~ 0.008333334;
#X obj 121 -86 r unit8;
#X obj 23 -27 osc~ 27.500683;
#X obj 78 63 *~;
#X obj 100 100 sig~;
#X obj 200 200 lop~ 3;
#X obj 300 300 *~ 0.008333334;
#X obj 121 -86 r unit9;
#X obj 23 -27 osc~ 29.13596;
#X obj 78 63 *~;
#X obj 100 100 sig~;
#X obj 200 200 lop~ 3;
#X obj 300 300 *~ 0.008333334;
#X obj 121 -86 r unit10;
#X obj 23 -27 osc~ 30.868475;
#X obj 78 63 *~;
#X obj 100 100 sig~;
#X obj 200 200 lop~ 3;
#X obj 300 300 *~ 0.008333334;
#X obj 121 -86 r unit11;
#X obj 23 -27 osc~ 32.70401;
#X obj 78 63 *~;
#X obj 100 100 sig~;
#X obj 200 200 lop~ 3;
#X obj 300 300 *~ 0.008333334;
#X obj 121 -86 r unit12;
#X obj 23 -27 osc~ 34.648693;
#X obj 78 63 *~;
#X obj 100 100 sig~;
#X obj 200 200 lop~ 3;
#X obj 300 300 *~ 0.008333334;
#X obj 121 -86 r unit13;
#X obj 23 -27 osc~ 36.709015;
#X obj 78 63 *~;
#X obj 100 100 sig~;
#X obj 200 200 lop~ 3;
#X obj 300 300 *~ 0.008333334;
#X obj 121 -86 r unit14;
#X obj 23 -27 osc~ 38.89185;
#X obj 78 63 *~;
#X obj 100 100 sig~;
#X obj 200 200 lop~ 3;
#X obj 300 300 *~ 0.008333334;
#X obj 121 -86 r unit15;
#X obj 23 -27 osc~ 41.204483;
#X obj 78 63 *~;
#X obj 100 100 sig~;
#X obj 200 200 lop~ 3;
#X obj 300 300 *~ 0.008333334;
#X obj 121 -86 r unit16;
#X obj 23 -27 osc~ 43.654633;
#X obj 78 63 *~;
#X obj 100 100 sig~;
#X obj 200 200 lop~ 3;
#X obj 300 300 *~ 0.008333334;
#X obj 121 -86 r unit17;
#X obj 23 -27 osc~ 46.250473;
#X obj 78 63 *~;
#X obj 100 100 sig~;
#X obj 200 200 lop~ 3;
#X obj 300 300 *~ 0.008333334;
#X obj 121 -86 r unit18;
#X obj 23 -27 osc~ 49.00067;
#X obj 78 63 *~;
#X obj 100 100 sig~;
#X obj 200 200 lop~ 3;
#X obj 300 300 *~ 0.008333334;
#X obj 121 -86 r unit19;
#X obj 23 -27 osc~ 51.914406;
#X obj 78 63 *~;
#X obj 100 100 sig~;
#X obj 200 200 lop~ 3;
#X obj 300 300 *~ 0.008333334;
#X obj 121 -86 r unit20;
#X obj 23 -27 osc~ 55.0014;
#X obj 78 63 *~;
#X obj 100 100 sig~;
#X obj 200 200 lop~ 3;
#X obj 300 300 *~ 0.008333334;
#X obj 121 -86 r unit21;
#X obj 23 -27 osc~ 58.271957;
#X obj 78 63 *~;
#X obj 100 100 sig~;
#X obj 200 200 lop~ 3;
#X obj 300 300 *~ 0.008333334;
#X obj 121 -86 r unit22;
#X obj 23 -27 osc~ 61.73699;
#X obj 78 63 *~;
#X obj 100 100 sig~;
#X obj 200 200 lop~ 3;
#X obj 300 300 *~ 0.008333334;
#X obj 121 -86 r unit23;
#X obj 23 -27 osc~ 65.408066;
#X obj 78 63 *~;
#X obj 100 100 sig~;
#X obj 200 200 lop~ 3;
#X obj 300 300 *~ 0.008333334;
#X obj 121 -86 r unit24;
#X obj 23 -27 osc~ 69.29743;
#X obj 78 63 *~;
#X obj 100 100 sig~;
#X obj 200 200 lop~ 3;
#X obj 300 300 *~ 0.008333334;
#X obj 121 -86 r unit25;
#X obj 23 -27 osc~ 73.418076;
#X obj 78 63 *~;
#X obj 100 100 sig~;
#X obj 200 200 lop~ 3;
#X obj 300 300 *~ 0.008333334;
#X obj 121 -86 r unit26;
#X obj 23 -27 osc~ 77.783745;
#X obj 78 63 *~;
#X obj 100 100 sig~;
#X obj 200 200 lop~ 3;
#X obj 300 300 *~ 0.008333334;
#X obj 121 -86 r unit27;
#X obj 23 -27 osc~ 82.40901;
#X obj 78 63 *~;
#X obj 100 100 sig~;
#X obj 200 200 lop~ 3;
#X obj 300 300 *~ 0.008333334;
#X obj 121 -86 r unit28;
#X obj 23 -27 osc~ 87.30931;
#X obj 78 63 *~;
#X obj 100 100 sig~;
#X obj 200 200 lop~ 3;
#X obj 300 300 *~ 0.008333334;
#X obj 121 -86 r unit29;
#X obj 23 -27 osc~ 92.501;
#X obj 78 63 *~;
#X obj 100 100 sig~;
#X obj 200 200 lop~ 3;
#X obj 300 300 *~ 0.008333334;
#X obj 121 -86 r unit30;
#X obj 23 -27 osc~ 98.001396;
#X obj 78 63 *~;
#X obj 100 100 sig~;
#X obj 200 200 lop~ 3;
#X obj 300 300 *~ 0.008333334;
#X obj 121 -86 r unit31;
#X obj 23 -27 osc~ 103.828865;
#X obj 78 63 *~;
#X obj 100 100 sig~;
#X obj 200 200 lop~ 3;
#X obj 300 300 *~ 0.008333334;
#X obj 121 -86 r unit32;
#X obj 23 -27 osc~ 110.00285;
#X obj 78 63 *~;
#X obj 100 100 sig~;
#X obj 200 200 lop~ 3;
#X obj 300 300 *~ 0.008333334;
#X obj 121 -86 r unit33;
#X obj 23 -27 osc~ 116.54397;
#X obj 78 63 *~;
#X obj 100 100 sig~;
#X obj 200 200 lop~ 3;
#X obj 300 300 *~ 0.008333334;
#X obj 121 -86 r unit34;
#X obj 23 -27 osc~ 123.47404;
#X obj 78 63 *~;
#X obj 100 100 sig~;
#X obj 200 200 lop~ 3;
#X obj 300 300 *~ 0.008333334;
#X obj 121 -86 r unit35;
#X obj 23 -27 osc~ 130.8162;
#X obj 78 63 *~;
#X obj 100 100 sig~;
#X obj 200 200 lop~ 3;
#X obj 300 300 *~ 0.008333334;
#X obj 121 -86 r unit36;
#X obj 23 -27 osc~ 138.59494;
#X obj 78 63 *~;
#X obj 100 100 sig~;
#X obj 200 200 lop~ 3;
#X obj 300 300 *~ 0.008333334;
#X obj 121 -86 r unit37;
#X obj 23 -27 osc~ 146.83623;
#X obj 78 63 *~;
#X obj 100 100 sig~;
#X obj 200 200 lop~ 3;
#X obj 300 300 *~ 0.008333334;
#X obj 121 -86 r unit38;
#X obj 23 -27 osc~ 155.56757;
#X obj 78 63 *~;
#X obj 100 100 sig~;
#X obj 200 200 lop~ 3;
#X obj 300 300 *~ 0.008333334;
#X obj 121 -86 r unit39;
#X obj 23 -27 osc~ 164.8181;
#X obj 78 63 *~;
#X obj 100 100 sig~;
#X obj 200 200 lop~ 3;
#X obj 300 300 *~ 0.008333334;
#X obj 121 -86 r unit40;
#X obj 23 -27 osc~ 174.6187;
#X obj 78 63 *~;
#X obj 100 100 sig~;
#X obj 200 200 lop~ 3;
#X obj 300 300 *~ 0.008333334;
#X obj 121 -86 r unit41;
#X obj 23 -27 osc~ 185.00208;
#X obj 78 63 *~;
#X obj 100 100 sig~;
#X obj 200 200 lop~ 3;
#X obj 300 300 *~ 0.008333334;
#X obj 121 -86 r unit42;
#X obj 23 -27 osc~ 196.00288;
#X obj 78 63 *~;
#X obj 100 100 sig~;
#X obj 200 200 lop~ 3;
#X obj 300 300 *~ 0.008333334;
#X obj 121 -86 r unit43;
#X obj 23 -27 osc~ 207.65784;
#X obj 78 63 *~;
#X obj 100 100 sig~;
#X obj 200 200 lop~ 3;
#X obj 300 300 *~ 0.008333334;
#X obj 121 -86 r unit44;
#X obj 23 -27 osc~ 220.00583;
#X obj 78 63 *~;
#X obj 100 100 sig~;
#X obj 200 200 lop~ 3;
#X obj 300 300 *~ 0.008333334;
#X obj 121 -86 r unit45;
#X obj 23 -27 osc~ 233.08807;
#X obj 78 63 *~;
#X obj 100 100 sig~;
#X obj 200 200 lop~ 3;
#X obj 300 300 *~ 0.008333334;
#X obj 121 -86 r unit46;
#X obj 23 -27 osc~ 246.94823;
#X obj 78 63 *~;
#X obj 100 100 sig~;
#X obj 200 200 lop~ 3;
#X obj 300 300 *~ 0.008333334;
#X obj 121 -86 r unit47;
#X obj 23 -27 osc~ 261.63254;
#X obj 78 63 *~;
#X obj 100 100 sig~;
#X obj 200 200 lop~ 3;
#X obj 300 300 *~ 0.008333334;
#X obj 121 -86 r unit48;
#X obj 23 -27 osc~ 277.19003;
#X obj 78 63 *~;
#X obj 100 100 sig~;
#X obj 200 200 lop~ 3;
#X obj 300 300 *~ 0.008333334;
#X obj 121 -86 r unit49;
#X obj 23 -27 osc~ 293.67264;
#X obj 78 63 *~;
#X obj 100 100 sig~;
#X obj 200 200 lop~ 3;
#X obj 300 300 *~ 0.008333334;
#X obj 121 -86 r unit50;
#X obj 23 -27 osc~ 311.13535;
#X obj 78 63 *~;
#X obj 100 100 sig~;
#X obj 200 200 lop~ 3;
#X obj 300 300 *~ 0.008333334;
#X obj 121 -86 r unit51;
#X obj 23 -27 osc~ 329.63644;
#X obj 78 63 *~;
#X obj 100 100 sig~;
#X obj 200 200 lop~ 3;
#X obj 300 300 *~ 0.008333334;
#X obj 121 -86 r unit52;
#X obj 23 -27 osc~ 349.23767;
#X obj 78 63 *~;
#X obj 100 100 sig~;
#X obj 200 200 lop~ 3;
#X obj 300 300 *~ 0.008333334;
#X obj 121 -86 r unit53;
#X obj 23 -27 osc~ 370.00446;
#X obj 78 63 *~;
#X obj 100 100 sig~;
#X obj 200 200 lop~ 3;
#X obj 300 300 *~ 0.008333334;
#X obj 121 -86 r unit54;
#X obj 23 -27 osc~ 392.00607;
#X obj 78 63 *~;
#X obj 100 100 sig~;
#X obj 200 200 lop~ 3;
#X obj 300 300 *~ 0.008333334;
#X obj 121 -86 r unit55;
#X obj 23 -27 osc~ 415.31598;
#X obj 78 63 *~;
#X obj 100 100 sig~;
#X obj 200 200 lop~ 3;
#X obj 300 300 *~ 0.008333334;
#X obj 121 -86 r unit56;
#X obj 23 -27 osc~ 440.01196;
#X obj 78 63 *~;
#X obj 100 100 sig~;
#X obj 200 200 lop~ 3;
#X obj 300 300 *~ 0.008333334;
#X obj 121 -86 r unit57;
#X obj 23 -27 osc~ 466.17645;
#X obj 78 63 *~;
#X obj 100 100 sig~;
#X obj 200 200 lop~ 3;
#X obj 300 300 *~ 0.008333334;
#X obj 121 -86 r unit58;
#X obj 23 -27 osc~ 493.89676;
#X obj 78 63 *~;
#X obj 100 100 sig~;
#X obj 200 200 lop~ 3;
#X obj 300 300 *~ 0.008333334;
#X obj 121 -86 r unit59;
#X obj 23 -27 osc~ 523.26544;
#X obj 78 63 *~;
#X obj 100 100 sig~;
#X obj 200 200 lop~ 3;
#X obj 300 300 *~ 0.008333334;
#X obj 121 -86 r unit60;
#X obj 23 -27 osc~ 554.38043;
#X obj 78 63 *~;
#X obj 100 100 sig~;
#X obj 200 200 lop~ 3;
#X obj 300 300 *~ 0.008333334;
#X obj 121 -86 r unit61;
#X obj 23 -27 osc~ 587.34564;
#X obj 78 63 *~;
#X obj 100 100 sig~;
#X obj 200 200 lop~ 3;
#X obj 300 300 *~ 0.008333334;
#X obj 121 -86 r unit62;
#X obj 23 -27 osc~ 622.27106;
#X obj 78 63 *~;
#X obj 100 100 sig~;
#X obj 200 200 lop~ 3;
#X obj 300 300 *~ 0.008333334;
#X obj 121 -86 r unit63;
#X obj 23 -27 osc~ 659.27325;
#X obj 78 63 *~;
#X obj 100 100 sig~;
#X obj 200 200 lop~ 3;
#X obj 300 300 *~ 0.008333334;
#X obj 121 -86 r unit64;
#X obj 23 -27 osc~ 698.4757;
#X obj 78 63 *~;
#X obj 100 100 sig~;
#X obj 200 200 lop~ 3;
#X obj 300 300 *~ 0.008333334;
#X obj 121 -86 r unit65;
#X obj 23 -27 osc~ 740.0093;
#X obj 78 63 *~;
#X obj 100 100 sig~;
#X obj 200 200 lop~ 3;
#X obj 300 300 *~ 0.008333334;
#X obj 121 -86 r unit66;
#X obj 23 -27 osc~ 784.0126;
#X obj 78 63 *~;
#X obj 100 100 sig~;
#X obj 200 200 lop~ 3;
#X obj 300 300 *~ 0.008333334;
#X obj 121 -86 r unit67;
#X obj 23 -27 osc~ 830.63245;
#X obj 78 63 *~;
#X obj 100 100 sig~;
#X obj 200 200 lop~ 3;
#X obj 300 300 *~ 0.008333334;
#X obj 121 -86 r unit68;
#X obj 23 -27 osc~ 880.0245;
#X obj 78 63 *~;
#X obj 100 100 sig~;
#X obj 200 200 lop~ 3;
#X obj 300 300 *~ 0.008333334;
#X obj 121 -86 r unit69;
#X obj 23 -27 osc~ 932.3535;
#X obj 78 63 *~;
#X obj 100 100 sig~;
#X obj 200 200 lop~ 3;
#X obj 300 300 *~ 0.008333334;
#X obj 121 -86 r unit70;
#X obj 23 -27 osc~ 987.7942;
#X obj 78 63 *~;
#X obj 100 100 sig~;
#X obj 200 200 lop~ 3;
#X obj 300 300 *~ 0.008333334;
#X obj 121 -86 r unit71;
#X obj 23 -27 osc~ 1046.5315;
#X obj 78 63 *~;
#X obj 100 100 sig~;
#X obj 200 200 lop~ 3;
#X obj 300 300 *~ 0.008333334;
#X obj 121 -86 r unit72;
#X obj 23 -27 osc~ 1108.7616;
#X obj 78 63 *~;
#X obj 100 100 sig~;
#X obj 200 200 lop~ 3;
#X obj 300 300 *~ 0.008333334;
#X obj 121 -86 r unit73;
#X obj 23 -27 osc~ 1174.692;
#X obj 78 63 *~;
#X obj 100 100 sig~;
#X obj 200 200 lop~ 3;
#X obj 300 300 *~ 0.008333334;
#X obj 121 -86 r unit74;
#X obj 23 -27 osc~ 1244.5428;
#X obj 78 63 *~;
#X obj 100 100 sig~;
#X obj 200 200 lop~ 3;
#X obj 300 300 *~ 0.008333334;
#X obj 121 -86 r unit75;
#X obj 23 -27 osc~ 1318.5472;
#X obj 78 63 *~;
#X obj 100 100 sig~;
#X obj 200 200 lop~ 3;
#X obj 300 300 *~ 0.008333334;
#X obj 121 -86 r unit76;
#X obj 23 -27 osc~ 1396.9521;
#X obj 78 63 *~;
#X obj 100 100 sig~;
#X obj 200 200 lop~ 3;
#X obj 300 300 *~ 0.008333334;
#X obj 121 -86 r unit77;
#X obj 23 -27 osc~ 1480.0193;
#X obj 78 63 *~;
#X obj 100 100 sig~;
#X obj 200 200 lop~ 3;
#X obj 300 300 *~ 0.008333334;
#X obj 121 -86 r unit78;
#X obj 23 -27 osc~ 1568.0259;
#X obj 78 63 *~;
#X obj 100 100 sig~;
#X obj 200 200 lop~ 3;
#X obj 300 300 *~ 0.008333334;
#X obj 121 -86 r unit79;
#X obj 23 -27 osc~ 1661.2656;
#X obj 78 63 *~;
#X obj 100 100 sig~;
#X obj 200 200 lop~ 3;
#X obj 300 300 *~ 0.008333334;
#X obj 121 -86 r unit80;
#X obj 23 -27 osc~ 1760.0497;
#X obj 78 63 *~;
#X obj 100 100 sig~;
#X obj 200 200 lop~ 3;
#X obj 300 300 *~ 0.008333334;
#X obj 121 -86 r unit81;
#X obj 23 -27 osc~ 1864.7078;
#X obj 78 63 *~;
#X obj 100 100 sig~;
#X obj 200 200 lop~ 3;
#X obj 300 300 *~ 0.008333334;
#X obj 121 -86 r unit82;
#X obj 23 -27 osc~ 1975.5891;
#X obj 78 63 *~;
#X obj 100 100 sig~;
#X obj 200 200 lop~ 3;
#X obj 300 300 *~ 0.008333334;
#X obj 121 -86 r unit83;
#X obj 23 -27 osc~ 2093.064;
#X obj 78 63 *~;
#X obj 100 100 sig~;
#X obj 200 200 lop~ 3;
#X obj 300 300 *~ 0.008333334;
#X obj 121 -86 r unit84;
#X obj 23 -27 osc~ 2217.5242;
#X obj 78 63 *~;
#X obj 100 100 sig~;
#X obj 200 200 lop~ 3;
#X obj 300 300 *~ 0.008333334;
#X obj 121 -86 r unit85;
#X obj 23 -27 osc~ 2349.385;
#X obj 78 63 *~;
#X obj 100 100 sig~;
#X obj 200 200 lop~ 3;
#X obj 300 300 *~ 0.008333334;
#X obj 121 -86 r unit86;
#X obj 23 -27 osc~ 2489.087;
#X obj 78 63 *~;
#X obj 100 100 sig~;
#X obj 200 200 lop~ 3;
#X obj 300 300 *~ 0.008333334;
#X obj 121 -86 r unit87;
#X obj 23 -27 osc~ 2637.096;
#X obj 78 63 *~;
#X obj 100 100 sig~;
#X obj 200 200 lop~ 3;
#X obj 300 300 *~ 0.008333334;
#X obj 121 -86 r unit88;
#X obj 23 -27 osc~ 2793.906;
#X obj 78 63 *~;
#X obj 100 100 sig~;
#X obj 200 200 lop~ 3;
#X obj 300 300 *~ 0.008333334;
#X obj 121 -86 r unit89;
#X obj 23 -27 osc~ 2960.0405;
#X obj 78 63 *~;
#X obj 100 100 sig~;
#X obj 200 200 lop~ 3;
#X obj 300 300 *~ 0.008333334;
#X obj 121 -86 r unit90;
#X obj 23 -27 osc~ 3136.054;
#X obj 78 63 *~;
#X obj 100 100 sig~;
#X obj 200 200 lop~ 3;
#X obj 300 300 *~ 0.008333334;
#X obj 121 -86 r unit91;
#X obj 23 -27 osc~ 3322.5337;
#X obj 78 63 *~;
#X obj 100 100 sig~;
#X obj 200 200 lop~ 3;
#X obj 300 300 *~ 0.008333334;
#X obj 121 -86 r unit92;
#X obj 23 -27 osc~ 3520.102;
#X obj 78 63 *~;
#X obj 100 100 sig~;
#X obj 200 200 lop~ 3;
#X obj 300 300 *~ 0.008333334;
#X obj 121 -86 r unit93;
#X obj 23 -27 osc~ 3729.4185;
#X obj 78 63 *~;
#X obj 100 100 sig~;
#X obj 200 200 lop~ 3;
#X obj 300 300 *~ 0.008333334;
#X obj 121 -86 r unit94;
#X obj 23 -27 osc~ 3951.1814;
#X obj 78 63 *~;
#X obj 100 100 sig~;
#X obj 200 200 lop~ 3;
#X obj 300 300 *~ 0.008333334;
#X obj 121 -86 r unit95;
#X obj 23 -27 osc~ 4186.131;
#X obj 78 63 *~;
#X obj 100 100 sig~;
#X obj 200 200 lop~ 3;
#X obj 300 300 *~ 0.008333334;
#X obj 121 -86 r unit96;
#X obj 23 -27 osc~ 4435.0513;
#X obj 78 63 *~;
#X obj 100 100 sig~;
#X obj 200 200 lop~ 3;
#X obj 300 300 *~ 0.008333334;
#X obj 121 -86 r unit97;
#X obj 23 -27 osc~ 4698.7734;
#X obj 78 63 *~;
#X obj 100 100 sig~;
#X obj 200 200 lop~ 3;
#X obj 300 300 *~ 0.008333334;
#X obj 121 -86 r unit98;
#X obj 23 -27 osc~ 4978.1772;
#X obj 78 63 *~;
#X obj 100 100 sig~;
#X obj 200 200 lop~ 3;
#X obj 300 300 *~ 0.008333334;
#X obj 121 -86 r unit99;
#X obj 23 -27 osc~ 5274.1953;
#X obj 78 63 *~;
#X obj 100 100 sig~;
#X obj 200 200 lop~ 3;
#X obj 300 300 *~ 0.008333334;
#X obj 121 -86 r unit100;
#X obj 23 -27 osc~ 5587.8154;
#X obj 78 63 *~;
#X obj 100 100 sig~;
#X obj 200 200 lop~ 3;
#X obj 300 300 *~ 0.008333334;
#X obj 121 -86 r unit101;
#X obj 23 -27 osc~ 5920.0845;
#X obj 78 63 *~;
#X obj 100 100 sig~;
#X obj 200 200 lop~ 3;
#X obj 300 300 *~ 0.008333334;
#X obj 121 -86 r unit102;
#X obj 23 -27 osc~ 6272.1113;
#X obj 78 63 *~;
#X obj 100 100 sig~;
#X obj 200 200 lop~ 3;
#X obj 300 300 *~ 0.008333334;
#X obj 121 -86 r unit103;
#X obj 23 -27 osc~ 6645.071;
#X obj 78 63 *~;
#X obj 100 100 sig~;
#X obj 200 200 lop~ 3;
#X obj 300 300 *~ 0.008333334;
#X obj 121 -86 r unit104;
#X obj 23 -27 osc~ 7040.2075;
#X obj 78 63 *~;
#X obj 100 100 sig~;
#X obj 200 200 lop~ 3;
#X obj 300 300 *~ 0.008333334;
#X obj 121 -86 r unit105;
#X obj 23 -27 osc~ 7458.8403;
#X obj 78 63 *~;
#X obj 100 100 sig~;
#X obj 200 200 lop~ 3;
#X obj 300 300 *~ 0.008333334;
#X obj 121 -86 r unit106;
#X obj 23 -27 osc~ 7902.366;
#X obj 78 63 *~;
#X obj 100 100 sig~;
#X obj 200 200 lop~ 3;
#X obj 300 300 *~ 0.008333334;
#X obj 121 -86 r unit107;
#X obj 23 -27 osc~ 8372.266;
#X obj 78 63 *~;
#X obj 100 100 sig~;
#X obj 200 200 lop~ 3;
#X obj 300 300 *~ 0.008333334;
#X obj 121 -86 r unit108;
#X obj 23 -27 osc~ 8870.106;
#X obj 78 63 *~;
#X obj 100 100 sig~;
#X obj 200 200 lop~ 3;
#X obj 300 300 *~ 0.008333334;
#X obj 121 -86 r unit109;
#X obj 23 -27 osc~ 9397.551;
#X obj 78 63 *~;
#X obj 100 100 sig~;
#X obj 200 200 lop~ 3;
#X obj 300 300 *~ 0.008333334;
#X obj 121 -86 r unit110;
#X obj 23 -27 osc~ 9956.358;
#X obj 78 63 *~;
#X obj 100 100 sig~;
#X obj 200 200 lop~ 3;
#X obj 300 300 *~ 0.008333334;
#X obj 121 -86 r unit111;
#X obj 23 -27 osc~ 10548.395;
#X obj 78 63 *~;
#X obj 100 100 sig~;
#X obj 200 200 lop~ 3;
#X obj 300 300 *~ 0.008333334;
#X obj 121 -86 r unit112;
#X obj 23 -27 osc~ 11175.635;
#X obj 78 63 *~;
#X obj 100 100 sig~;
#X obj 200 200 lop~ 3;
#X obj 300 300 *~ 0.008333334;
#X obj 121 -86 r unit113;
#X obj 23 -27 osc~ 11840.173;
#X obj 78 63 *~;
#X obj 100 100 sig~;
#X obj 200 200 lop~ 3;
#X obj 300 300 *~ 0.008333334;
#X obj 121 -86 r unit114;
#X obj 23 -27 osc~ 12544.227;
#X obj 78 63 *~;
#X obj 100 100 sig~;
#X obj 200 200 lop~ 3;
#X obj 300 300 *~ 0.008333334;
#X obj 121 -86 r unit115;
#X obj 23 -27 osc~ 13290.1455;
#X obj 78 63 *~;
#X obj 100 100 sig~;
#X obj 200 200 lop~ 3;
#X obj 300 300 *~ 0.008333334;
#X obj 121 -86 r unit116;
#X obj 23 -27 osc~ 14080.419;
#X obj 78 63 *~;
#X obj 100 100 sig~;
#X obj 200 200 lop~ 3;
#X obj 300 300 *~ 0.008333334;
#X obj 121 -86 r unit117;
#X obj 23 -27 osc~ 14917.685;
#X obj 78 63 *~;
#X obj 100 100 sig~;
#X obj 200 200 lop~ 3;
#X obj 300 300 *~ 0.008333334;
#X obj 121 -86 r unit118;
#X obj 23 -27 osc~ 15804.737;
#X obj 78 63 *~;
#X obj 100 100 sig~;
#X obj 200 200 lop~ 3;
#X obj 300 300 *~ 0.008333334;
#X obj 121 -86 r unit119;
#X obj 23 -27 osc~ 16744.537;
#X obj 78 63 *~;
#X obj 100 100 sig~;
#X obj 200 200 lop~ 3;
#X obj 300 300 *~ 0.008333334;
#X connect 1 0 4 0;
#X connect 4 0 5 0;
#X connect 5 0 3 1;
#X connect 2 0 3 0;
#X connect 3 0 6 0;
#X connect 6 0  0  0;
#X connect 6 0  0  1;
#X connect 7 0 10 0;
#X connect 10 0 11 0;
#X connect 11 0 9 1;
#X connect 8 0 9 0;
#X connect 9 0 12 0;
#X connect 12 0  0  0;
#X connect 12 0  0  1;
#X connect 13 0 16 0;
#X connect 16 0 17 0;
#X connect 17 0 15 1;
#X connect 14 0 15 0;
#X connect 15 0 18 0;
#X connect 18 0  0  0;
#X connect 18 0  0  1;
#X connect 19 0 22 0;
#X connect 22 0 23 0;
#X connect 23 0 21 1;
#X connect 20 0 21 0;
#X connect 21 0 24 0;
#X connect 24 0  0  0;
#X connect 24 0  0  1;
#X connect 25 0 28 0;
#X connect 28 0 29 0;
#X connect 29 0 27 1;
#X connect 26 0 27 0;
#X connect 27 0 30 0;
#X connect 30 0  0  0;
#X connect 30 0  0  1;
#X connect 31 0 34 0;
#X connect 34 0 35 0;
#X connect 35 0 33 1;
#X connect 32 0 33 0;
#X connect 33 0 36 0;
#X connect 36 0  0  0;
#X connect 36 0  0  1;
#X connect 37 0 40 0;
#X connect 40 0 41 0;
#X connect 41 0 39 1;
#X connect 38 0 39 0;
#X connect 39 0 42 0;
#X connect 42 0  0  0;
#X connect 42 0  0  1;
#X connect 43 0 46 0;
#X connect 46 0 47 0;
#X connect 47 0 45 1;
#X connect 44 0 45 0;
#X connect 45 0 48 0;
#X connect 48 0  0  0;
#X connect 48 0  0  1;
#X connect 49 0 52 0;
#X connect 52 0 53 0;
#X connect 53 0 51 1;
#X connect 50 0 51 0;
#X connect 51 0 54 0;
#X connect 54 0  0  0;
#X connect 54 0  0  1;
#X connect 55 0 58 0;
#X connect 58 0 59 0;
#X connect 59 0 57 1;
#X connect 56 0 57 0;
#X connect 57 0 60 0;
#X connect 60 0  0  0;
#X connect 60 0  0  1;
#X connect 61 0 64 0;
#X connect 64 0 65 0;
#X connect 65 0 63 1;
#X connect 62 0 63 0;
#X connect 63 0 66 0;
#X connect 66 0  0  0;
#X connect 66 0  0  1;
#X connect 67 0 70 0;
#X connect 70 0 71 0;
#X connect 71 0 69 1;
#X connect 68 0 69 0;
#X connect 69 0 72 0;
#X connect 72 0  0  0;
#X connect 72 0  0  1;
#X connect 73 0 76 0;
#X connect 76 0 77 0;
#X connect 77 0 75 1;
#X connect 74 0 75 0;
#X connect 75 0 78 0;
#X connect 78 0  0  0;
#X connect 78 0  0  1;
#X connect 79 0 82 0;
#X connect 82 0 83 0;
#X connect 83 0 81 1;
#X connect 80 0 81 0;
#X connect 81 0 84 0;
#X connect 84 0  0  0;
#X connect 84 0  0  1;
#X connect 85 0 88 0;
#X connect 88 0 89 0;
#X connect 89 0 87 1;
#X connect 86 0 87 0;
#X connect 87 0 90 0;
#X connect 90 0  0  0;
#X connect 90 0  0  1;
#X connect 91 0 94 0;
#X connect 94 0 95 0;
#X connect 95 0 93 1;
#X connect 92 0 93 0;
#X connect 93 0 96 0;
#X connect 96 0  0  0;
#X connect 96 0  0  1;
#X connect 97 0 100 0;
#X connect 100 0 101 0;
#X connect 101 0 99 1;
#X connect 98 0 99 0;
#X connect 99 0 102 0;
#X connect 102 0  0  0;
#X connect 102 0  0  1;
#X connect 103 0 106 0;
#X connect 106 0 107 0;
#X connect 107 0 105 1;
#X connect 104 0 105 0;
#X connect 105 0 108 0;
#X connect 108 0  0  0;
#X connect 108 0  0  1;
#X connect 109 0 112 0;
#X connect 112 0 113 0;
#X connect 113 0 111 1;
#X connect 110 0 111 0;
#X connect 111 0 114 0;
#X connect 114 0  0  0;
#X connect 114 0  0  1;
#X connect 115 0 118 0;
#X connect 118 0 119 0;
#X connect 119 0 117 1;
#X connect 116 0 117 0;
#X connect 117 0 120 0;
#X connect 120 0  0  0;
#X connect 120 0  0  1;
#X connect 121 0 124 0;
#X connect 124 0 125 0;
#X connect 125 0 123 1;
#X connect 122 0 123 0;
#X connect 123 0 126 0;
#X connect 126 0  0  0;
#X connect 126 0  0  1;
#X connect 127 0 130 0;
#X connect 130 0 131 0;
#X connect 131 0 129 1;
#X connect 128 0 129 0;
#X connect 129 0 132 0;
#X connect 132 0  0  0;
#X connect 132 0  0  1;
#X connect 133 0 136 0;
#X connect 136 0 137 0;
#X connect 137 0 135 1;
#X connect 134 0 135 0;
#X connect 135 0 138 0;
#X connect 138 0  0  0;
#X connect 138 0  0  1;
#X connect 139 0 142 0;
#X connect 142 0 143 0;
#X connect 143 0 141 1;
#X connect 140 0 141 0;
#X connect 141 0 144 0;
#X connect 144 0  0  0;
#X connect 144 0  0  1;
#X connect 145 0 148 0;
#X connect 148 0 149 0;
#X connect 149 0 147 1;
#X connect 146 0 147 0;
#X connect 147 0 150 0;
#X connect 150 0  0  0;
#X connect 150 0  0  1;
#X connect 151 0 154 0;
#X connect 154 0 155 0;
#X connect 155 0 153 1;
#X connect 152 0 153 0;
#X connect 153 0 156 0;
#X connect 156 0  0  0;
#X connect 156 0  0  1;
#X connect 157 0 160 0;
#X connect 160 0 161 0;
#X connect 161 0 159 1;
#X connect 158 0 159 0;
#X connect 159 0 162 0;
#X connect 162 0  0  0;
#X connect 162 0  0  1;
#X connect 163 0 166 0;
#X connect 166 0 167 0;
#X connect 167 0 165 1;
#X connect 164 0 165 0;
#X connect 165 0 168 0;
#X connect 168 0  0  0;
#X connect 168 0  0  1;
#X connect 169 0 172 0;
#X connect 172 0 173 0;
#X connect 173 0 171 1;
#X connect 170 0 171 0;
#X connect 171 0 174 0;
#X connect 174 0  0  0;
#X connect 174 0  0  1;
#X connect 175 0 178 0;
#X connect 178 0 179 0;
#X connect 179 0 177 1;
#X connect 176 0 177 0;
#X connect 177 0 180 0;
#X connect 180 0  0  0;
#X connect 180 0  0  1;
#X connect 181 0 184 0;
#X connect 184 0 185 0;
#X connect 185 0 183 1;
#X connect 182 0 183 0;
#X connect 183 0 186 0;
#X connect 186 0  0  0;
#X connect 186 0  0  1;
#X connect 187 0 190 0;
#X connect 190 0 191 0;
#X connect 191 0 189 1;
#X connect 188 0 189 0;
#X connect 189 0 192 0;
#X connect 192 0  0  0;
#X connect 192 0  0  1;
#X connect 193 0 196 0;
#X connect 196 0 197 0;
#X connect 197 0 195 1;
#X connect 194 0 195 0;
#X connect 195 0 198 0;
#X connect 198 0  0  0;
#X connect 198 0  0  1;
#X connect 199 0 202 0;
#X connect 202 0 203 0;
#X connect 203 0 201 1;
#X connect 200 0 201 0;
#X connect 201 0 204 0;
#X connect 204 0  0  0;
#X connect 204 0  0  1;
#X connect 205 0 208 0;
#X connect 208 0 209 0;
#X connect 209 0 207 1;
#X connect 206 0 207 0;
#X connect 207 0 210 0;
#X connect 210 0  0  0;
#X connect 210 0  0  1;
#X connect 211 0 214 0;
#X connect 214 0 215 0;
#X connect 215 0 213 1;
#X connect 212 0 213 0;
#X connect 213 0 216 0;
#X connect 216 0  0  0;
#X connect 216 0  0  1;
#X connect 217 0 220 0;
#X connect 220 0 221 0;
#X connect 221 0 219 1;
#X connect 218 0 219 0;
#X connect 219 0 222 0;
#X connect 222 0  0  0;
#X connect 222 0  0  1;
#X connect 223 0 226 0;
#X connect 226 0 227 0;
#X connect 227 0 225 1;
#X connect 224 0 225 0;
#X connect 225 0 228 0;
#X connect 228 0  0  0;
#X connect 228 0  0  1;
#X connect 229 0 232 0;
#X connect 232 0 233 0;
#X connect 233 0 231 1;
#X connect 230 0 231 0;
#X connect 231 0 234 0;
#X connect 234 0  0  0;
#X connect 234 0  0  1;
#X connect 235 0 238 0;
#X connect 238 0 239 0;
#X connect 239 0 237 1;
#X connect 236 0 237 0;
#X connect 237 0 240 0;
#X connect 240 0  0  0;
#X connect 240 0  0  1;
#X connect 241 0 244 0;
#X connect 244 0 245 0;
#X connect 245 0 243 1;
#X connect 242 0 243 0;
#X connect 243 0 246 0;
#X connect 246 0  0  0;
#X connect 246 0  0  1;
#X connect 247 0 250 0;
#X connect 250 0 251 0;
#X connect 251 0 249 1;
#X connect 248 0 249 0;
#X connect 249 0 252 0;
#X connect 252 0  0  0;
#X connect 252 0  0  1;
#X connect 253 0 256 0;
#X connect 256 0 257 0;
#X connect 257 0 255 1;
#X connect 254 0 255 0;
#X connect 255 0 258 0;
#X connect 258 0  0  0;
#X connect 258 0  0  1;
#X connect 259 0 262 0;
#X connect 262 0 263 0;
#X connect 263 0 261 1;
#X connect 260 0 261 0;
#X connect 261 0 264 0;
#X connect 264 0  0  0;
#X connect 264 0  0  1;
#X connect 265 0 268 0;
#X connect 268 0 269 0;
#X connect 269 0 267 1;
#X connect 266 0 267 0;
#X connect 267 0 270 0;
#X connect 270 0  0  0;
#X connect 270 0  0  1;
#X connect 271 0 274 0;
#X connect 274 0 275 0;
#X connect 275 0 273 1;
#X connect 272 0 273 0;
#X connect 273 0 276 0;
#X connect 276 0  0  0;
#X connect 276 0  0  1;
#X connect 277 0 280 0;
#X connect 280 0 281 0;
#X connect 281 0 279 1;
#X connect 278 0 279 0;
#X connect 279 0 282 0;
#X connect 282 0  0  0;
#X connect 282 0  0  1;
#X connect 283 0 286 0;
#X connect 286 0 287 0;
#X connect 287 0 285 1;
#X connect 284 0 285 0;
#X connect 285 0 288 0;
#X connect 288 0  0  0;
#X connect 288 0  0  1;
#X connect 289 0 292 0;
#X connect 292 0 293 0;
#X connect 293 0 291 1;
#X connect 290 0 291 0;
#X connect 291 0 294 0;
#X connect 294 0  0  0;
#X connect 294 0  0  1;
#X connect 295 0 298 0;
#X connect 298 0 299 0;
#X connect 299 0 297 1;
#X connect 296 0 297 0;
#X connect 297 0 300 0;
#X connect 300 0  0  0;
#X connect 300 0  0  1;
#X connect 301 0 304 0;
#X connect 304 0 305 0;
#X connect 305 0 303 1;
#X connect 302 0 303 0;
#X connect 303 0 306 0;
#X connect 306 0  0  0;
#X connect 306 0  0  1;
#X connect 307 0 310 0;
#X connect 310 0 311 0;
#X connect 311 0 309 1;
#X connect 308 0 309 0;
#X connect 309 0 312 0;
#X connect 312 0  0  0;
#X connect 312 0  0  1;
#X connect 313 0 316 0;
#X connect 316 0 317 0;
#X connect 317 0 315 1;
#X connect 314 0 315 0;
#X connect 315 0 318 0;
#X connect 318 0  0  0;
#X connect 318 0  0  1;
#X connect 319 0 322 0;
#X connect 322 0 323 0;
#X connect 323 0 321 1;
#X connect 320 0 321 0;
#X connect 321 0 324 0;
#X connect 324 0  0  0;
#X connect 324 0  0  1;
#X connect 325 0 328 0;
#X connect 328 0 329 0;
#X connect 329 0 327 1;
#X connect 326 0 327 0;
#X connect 327 0 330 0;
#X connect 330 0  0  0;
#X connect 330 0  0  1;
#X connect 331 0 334 0;
#X connect 334 0 335 0;
#X connect 335 0 333 1;
#X connect 332 0 333 0;
#X connect 333 0 336 0;
#X connect 336 0  0  0;
#X connect 336 0  0  1;
#X connect 337 0 340 0;
#X connect 340 0 341 0;
#X connect 341 0 339 1;
#X connect 338 0 339 0;
#X connect 339 0 342 0;
#X connect 342 0  0  0;
#X connect 342 0  0  1;
#X connect 343 0 346 0;
#X connect 346 0 347 0;
#X connect 347 0 345 1;
#X connect 344 0 345 0;
#X connect 345 0 348 0;
#X connect 348 0  0  0;
#X connect 348 0  0  1;
#X connect 349 0 352 0;
#X connect 352 0 353 0;
#X connect 353 0 351 1;
#X connect 350 0 351 0;
#X connect 351 0 354 0;
#X connect 354 0  0  0;
#X connect 354 0  0  1;
#X connect 355 0 358 0;
#X connect 358 0 359 0;
#X connect 359 0 357 1;
#X connect 356 0 357 0;
#X connect 357 0 360 0;
#X connect 360 0  0  0;
#X connect 360 0  0  1;
#X connect 361 0 364 0;
#X connect 364 0 365 0;
#X connect 365 0 363 1;
#X connect 362 0 363 0;
#X connect 363 0 366 0;
#X connect 366 0  0  0;
#X connect 366 0  0  1;
#X connect 367 0 370 0;
#X connect 370 0 371 0;
#X connect 371 0 369 1;
#X connect 368 0 369 0;
#X connect 369 0 372 0;
#X connect 372 0  0  0;
#X connect 372 0  0  1;
#X connect 373 0 376 0;
#X connect 376 0 377 0;
#X connect 377 0 375 1;
#X connect 374 0 375 0;
#X connect 375 0 378 0;
#X connect 378 0  0  0;
#X connect 378 0  0  1;
#X connect 379 0 382 0;
#X connect 382 0 383 0;
#X connect 383 0 381 1;
#X connect 380 0 381 0;
#X connect 381 0 384 0;
#X connect 384 0  0  0;
#X connect 384 0  0  1;
#X connect 385 0 388 0;
#X connect 388 0 389 0;
#X connect 389 0 387 1;
#X connect 386 0 387 0;
#X connect 387 0 390 0;
#X connect 390 0  0  0;
#X connect 390 0  0  1;
#X connect 391 0 394 0;
#X connect 394 0 395 0;
#X connect 395 0 393 1;
#X connect 392 0 393 0;
#X connect 393 0 396 0;
#X connect 396 0  0  0;
#X connect 396 0  0  1;
#X connect 397 0 400 0;
#X connect 400 0 401 0;
#X connect 401 0 399 1;
#X connect 398 0 399 0;
#X connect 399 0 402 0;
#X connect 402 0  0  0;
#X connect 402 0  0  1;
#X connect 403 0 406 0;
#X connect 406 0 407 0;
#X connect 407 0 405 1;
#X connect 404 0 405 0;
#X connect 405 0 408 0;
#X connect 408 0  0  0;
#X connect 408 0  0  1;
#X connect 409 0 412 0;
#X connect 412 0 413 0;
#X connect 413 0 411 1;
#X connect 410 0 411 0;
#X connect 411 0 414 0;
#X connect 414 0  0  0;
#X connect 414 0  0  1;
#X connect 415 0 418 0;
#X connect 418 0 419 0;
#X connect 419 0 417 1;
#X connect 416 0 417 0;
#X connect 417 0 420 0;
#X connect 420 0  0  0;
#X connect 420 0  0  1;
#X connect 421 0 424 0;
#X connect 424 0 425 0;
#X connect 425 0 423 1;
#X connect 422 0 423 0;
#X connect 423 0 426 0;
#X connect 426 0  0  0;
#X connect 426 0  0  1;
#X connect 427 0 430 0;
#X connect 430 0 431 0;
#X connect 431 0 429 1;
#X connect 428 0 429 0;
#X connect 429 0 432 0;
#X connect 432 0  0  0;
#X connect 432 0  0  1;
#X connect 433 0 436 0;
#X connect 436 0 437 0;
#X connect 437 0 435 1;
#X connect 434 0 435 0;
#X connect 435 0 438 0;
#X connect 438 0  0  0;
#X connect 438 0  0  1;
#X connect 439 0 442 0;
#X connect 442 0 443 0;
#X connect 443 0 441 1;
#X connect 440 0 441 0;
#X connect 441 0 444 0;
#X connect 444 0  0  0;
#X connect 444 0  0  1;
#X connect 445 0 448 0;
#X connect 448 0 449 0;
#X connect 449 0 447 1;
#X connect 446 0 447 0;
#X connect 447 0 450 0;
#X connect 450 0  0  0;
#X connect 450 0  0  1;
#X connect 451 0 454 0;
#X connect 454 0 455 0;
#X connect 455 0 453 1;
#X connect 452 0 453 0;
#X connect 453 0 456 0;
#X connect 456 0  0  0;
#X connect 456 0  0  1;
#X connect 457 0 460 0;
#X connect 460 0 461 0;
#X connect 461 0 459 1;
#X connect 458 0 459 0;
#X connect 459 0 462 0;
#X connect 462 0  0  0;
#X connect 462 0  0  1;
#X connect 463 0 466 0;
#X connect 466 0 467 0;
#X connect 467 0 465 1;
#X connect 464 0 465 0;
#X connect 465 0 468 0;
#X connect 468 0  0  0;
#X connect 468 0  0  1;
#X connect 469 0 472 0;
#X connect 472 0 473 0;
#X connect 473 0 471 1;
#X connect 470 0 471 0;
#X connect 471 0 474 0;
#X connect 474 0  0  0;
#X connect 474 0  0  1;
#X connect 475 0 478 0;
#X connect 478 0 479 0;
#X connect 479 0 477 1;
#X connect 476 0 477 0;
#X connect 477 0 480 0;
#X connect 480 0  0  0;
#X connect 480 0  0  1;
#X connect 481 0 484 0;
#X connect 484 0 485 0;
#X connect 485 0 483 1;
#X connect 482 0 483 0;
#X connect 483 0 486 0;
#X connect 486 0  0  0;
#X connect 486 0  0  1;
#X connect 487 0 490 0;
#X connect 490 0 491 0;
#X connect 491 0 489 1;
#X connect 488 0 489 0;
#X connect 489 0 492 0;
#X connect 492 0  0  0;
#X connect 492 0  0  1;
#X connect 493 0 496 0;
#X connect 496 0 497 0;
#X connect 497 0 495 1;
#X connect 494 0 495 0;
#X connect 495 0 498 0;
#X connect 498 0  0  0;
#X connect 498 0  0  1;
#X connect 499 0 502 0;
#X connect 502 0 503 0;
#X connect 503 0 501 1;
#X connect 500 0 501 0;
#X connect 501 0 504 0;
#X connect 504 0  0  0;
#X connect 504 0  0  1;
#X connect 505 0 508 0;
#X connect 508 0 509 0;
#X connect 509 0 507 1;
#X connect 506 0 507 0;
#X connect 507 0 510 0;
#X connect 510 0  0  0;
#X connect 510 0  0  1;
#X connect 511 0 514 0;
#X connect 514 0 515 0;
#X connect 515 0 513 1;
#X connect 512 0 513 0;
#X connect 513 0 516 0;
#X connect 516 0  0  0;
#X connect 516 0  0  1;
#X connect 517 0 520 0;
#X connect 520 0 521 0;
#X connect 521 0 519 1;
#X connect 518 0 519 0;
#X connect 519 0 522 0;
#X connect 522 0  0  0;
#X connect 522 0  0  1;
#X connect 523 0 526 0;
#X connect 526 0 527 0;
#X connect 527 0 525 1;
#X connect 524 0 525 0;
#X connect 525 0 528 0;
#X connect 528 0  0  0;
#X connect 528 0  0  1;
#X connect 529 0 532 0;
#X connect 532 0 533 0;
#X connect 533 0 531 1;
#X connect 530 0 531 0;
#X connect 531 0 534 0;
#X connect 534 0  0  0;
#X connect 534 0  0  1;
#X connect 535 0 538 0;
#X connect 538 0 539 0;
#X connect 539 0 537 1;
#X connect 536 0 537 0;
#X connect 537 0 540 0;
#X connect 540 0  0  0;
#X connect 540 0  0  1;
#X connect 541 0 544 0;
#X connect 544 0 545 0;
#X connect 545 0 543 1;
#X connect 542 0 543 0;
#X connect 543 0 546 0;
#X connect 546 0  0  0;
#X connect 546 0  0  1;
#X connect 547 0 550 0;
#X connect 550 0 551 0;
#X connect 551 0 549 1;
#X connect 548 0 549 0;
#X connect 549 0 552 0;
#X connect 552 0  0  0;
#X connect 552 0  0  1;
#X connect 553 0 556 0;
#X connect 556 0 557 0;
#X connect 557 0 555 1;
#X connect 554 0 555 0;
#X connect 555 0 558 0;
#X connect 558 0  0  0;
#X connect 558 0  0  1;
#X connect 559 0 562 0;
#X connect 562 0 563 0;
#X connect 563 0 561 1;
#X connect 560 0 561 0;
#X connect 561 0 564 0;
#X connect 564 0  0  0;
#X connect 564 0  0  1;
#X connect 565 0 568 0;
#X connect 568 0 569 0;
#X connect 569 0 567 1;
#X connect 566 0 567 0;
#X connect 567 0 570 0;
#X connect 570 0  0  0;
#X connect 570 0  0  1;
#X connect 571 0 574 0;
#X connect 574 0 575 0;
#X connect 575 0 573 1;
#X connect 572 0 573 0;
#X connect 573 0 576 0;
#X connect 576 0  0  0;
#X connect 576 0  0  1;
#X connect 577 0 580 0;
#X connect 580 0 581 0;
#X connect 581 0 579 1;
#X connect 578 0 579 0;
#X connect 579 0 582 0;
#X connect 582 0  0  0;
#X connect 582 0  0  1;
#X connect 583 0 586 0;
#X connect 586 0 587 0;
#X connect 587 0 585 1;
#X connect 584 0 585 0;
#X connect 585 0 588 0;
#X connect 588 0  0  0;
#X connect 588 0  0  1;
#X connect 589 0 592 0;
#X connect 592 0 593 0;
#X connect 593 0 591 1;
#X connect 590 0 591 0;
#X connect 591 0 594 0;
#X connect 594 0  0  0;
#X connect 594 0  0  1;
#X connect 595 0 598 0;
#X connect 598 0 599 0;
#X connect 599 0 597 1;
#X connect 596 0 597 0;
#X connect 597 0 600 0;
#X connect 600 0  0  0;
#X connect 600 0  0  1;
#X connect 601 0 604 0;
#X connect 604 0 605 0;
#X connect 605 0 603 1;
#X connect 602 0 603 0;
#X connect 603 0 606 0;
#X connect 606 0  0  0;
#X connect 606 0  0  1;
#X connect 607 0 610 0;
#X connect 610 0 611 0;
#X connect 611 0 609 1;
#X connect 608 0 609 0;
#X connect 609 0 612 0;
#X connect 612 0  0  0;
#X connect 612 0  0  1;
#X connect 613 0 616 0;
#X connect 616 0 617 0;
#X connect 617 0 615 1;
#X connect 614 0 615 0;
#X connect 615 0 618 0;
#X connect 618 0  0  0;
#X connect 618 0  0  1;
#X connect 619 0 622 0;
#X connect 622 0 623 0;
#X connect 623 0 621 1;
#X connect 620 0 621 0;
#X connect 621 0 624 0;
#X connect 624 0  0  0;
#X connect 624 0  0  1;
#X connect 625 0 628 0;
#X connect 628 0 629 0;
#X connect 629 0 627 1;
#X connect 626 0 627 0;
#X connect 627 0 630 0;
#X connect 630 0  0  0;
#X connect 630 0  0  1;
#X connect 631 0 634 0;
#X connect 634 0 635 0;
#X connect 635 0 633 1;
#X connect 632 0 633 0;
#X connect 633 0 636 0;
#X connect 636 0  0  0;
#X connect 636 0  0  1;
#X connect 637 0 640 0;
#X connect 640 0 641 0;
#X connect 641 0 639 1;
#X connect 638 0 639 0;
#X connect 639 0 642 0;
#X connect 642 0  0  0;
#X connect 642 0  0  1;
#X connect 643 0 646 0;
#X connect 646 0 647 0;
#X connect 647 0 645 1;
#X connect 644 0 645 0;
#X connect 645 0 648 0;
#X connect 648 0  0  0;
#X connect 648 0  0  1;
#X connect 649 0 652 0;
#X connect 652 0 653 0;
#X connect 653 0 651 1;
#X connect 650 0 651 0;
#X connect 651 0 654 0;
#X connect 654 0  0  0;
#X connect 654 0  0  1;
#X connect 655 0 658 0;
#X connect 658 0 659 0;
#X connect 659 0 657 1;
#X connect 656 0 657 0;
#X connect 657 0 660 0;
#X connect 660 0  0  0;
#X connect 660 0  0  1;
#X connect 661 0 664 0;
#X connect 664 0 665 0;
#X connect 665 0 663 1;
#X connect 662 0 663 0;
#X connect 663 0 666 0;
#X connect 666 0  0  0;
#X connect 666 0  0  1;
#X connect 667 0 670 0;
#X connect 670 0 671 0;
#X connect 671 0 669 1;
#X connect 668 0 669 0;
#X connect 669 0 672 0;
#X connect 672 0  0  0;
#X connect 672 0  0  1;
#X connect 673 0 676 0;
#X connect 676 0 677 0;
#X connect 677 0 675 1;
#X connect 674 0 675 0;
#X connect 675 0 678 0;
#X connect 678 0  0  0;
#X connect 678 0  0  1;
#X connect 679 0 682 0;
#X connect 682 0 683 0;
#X connect 683 0 681 1;
#X connect 680 0 681 0;
#X connect 681 0 684 0;
#X connect 684 0  0  0;
#X connect 684 0  0  1;
#X connect 685 0 688 0;
#X connect 688 0 689 0;
#X connect 689 0 687 1;
#X connect 686 0 687 0;
#X connect 687 0 690 0;
#X connect 690 0  0  0;
#X connect 690 0  0  1;
#X connect 691 0 694 0;
#X connect 694 0 695 0;
#X connect 695 0 693 1;
#X connect 692 0 693 0;
#X connect 693 0 696 0;
#X connect 696 0  0  0;
#X connect 696 0  0  1;
#X connect 697 0 700 0;
#X connect 700 0 701 0;
#X connect 701 0 699 1;
#X connect 698 0 699 0;
#X connect 699 0 702 0;
#X connect 702 0  0  0;
#X connect 702 0  0  1;
#X connect 703 0 706 0;
#X connect 706 0 707 0;
#X connect 707 0 705 1;
#X connect 704 0 705 0;
#X connect 705 0 708 0;
#X connect 708 0  0  0;
#X connect 708 0  0  1;
#X connect 709 0 712 0;
#X connect 712 0 713 0;
#X connect 713 0 711 1;
#X connect 710 0 711 0;
#X connect 711 0 714 0;
#X connect 714 0  0  0;
#X connect 714 0  0  1;
#X connect 715 0 718 0;
#X connect 718 0 719 0;
#X connect 719 0 717 1;
#X connect 716 0 717 0;
#X connect 717 0 720 0;
#X connect 720 0  0  0;
#X connect 720 0  0  1;
