#N canvas 268 342 450 300 10;
#X obj 78 133 dac~;
#X obj 121 -86 r vol1;
#X obj 23 -27 osc~ 440;
#X obj 121 -28 sig~;
#X obj 121 7 lop~ 3;
#X text 154 -14 > these two in the chain really clears the sound.;
#X text 173 -86 -- this is the input;
#X text 22 155 This is the patch for one oscillator unit of the ANS.
It receives a volume \, and oscillates at the pre-set frequency.;
#X floatatom 172 -58 5 0 0 0 - - -;
#X obj 78 63 *~;
#X obj 79 99 *~ 1;
#X connect 1 0 3 0;
#X connect 2 0 9 0;
#X connect 3 0 4 0;
#X connect 4 0 9 1;
#X connect 8 0 3 0;
#X connect 9 0 10 0;
#X connect 10 0 0 0;
#X connect 10 0 0 1;
